<svg width="95" height="22" viewBox="0 0 95 22" fill="none" xmlns="http://www.w3.org/2000/svg">
<path d="M5.84 16L1.952 16L1.952 14.4L5.568 14.4C6.304 14.4 6.84267 14.2773 7.184 14.032C7.536 13.776 7.712 13.376 7.712 12.832C7.712 12.4587 7.62133 12.16 7.44 11.936C7.26933 11.712 7.02933 11.5467 6.72 11.44C6.41067 11.3333 6.04267 11.28 5.616 11.28L1.952 11.28L1.952 9.744L5.44 9.744C5.80267 9.744 6.11733 9.70133 6.384 9.616C6.65067 9.53067 6.85867 9.38667 7.008 9.184C7.168 8.97067 7.248 8.68267 7.248 8.32C7.248 7.95733 7.168 7.67467 7.008 7.472C6.848 7.25867 6.62933 7.10933 6.352 7.024C6.07467 6.928 5.74933 6.88 5.376 6.88L1.952 6.88L1.952 5.28L5.92 5.28C6.656 5.28 7.25867 5.39733 7.728 5.632C8.19733 5.86667 8.544 6.192 8.768 6.608C9.00267 7.01333 9.12 7.48267 9.12 8.016C9.12 8.37867 9.05067 8.704 8.912 8.992C8.784 9.26933 8.592 9.50933 8.336 9.712C8.09067 9.91467 7.792 10.08 7.44 10.208C7.088 10.3253 6.69333 10.4053 6.256 10.448C7.07733 10.5013 7.728 10.6507 8.208 10.896C8.69867 11.1413 9.04533 11.4613 9.248 11.856C9.46133 12.24 9.568 12.672 9.568 13.152C9.568 13.792 9.41867 14.3253 9.12 14.752C8.82133 15.168 8.39467 15.4827 7.84 15.696C7.28533 15.8987 6.61867 16 5.84 16ZM2.864 16L1.056 16L1.056 5.28L2.864 5.28L2.864 16ZM13.0984 16L11.2904 16L11.2904 5.28L13.0984 5.28L13.0984 16ZM18.8744 16L11.8984 16L11.8984 14.4L18.8744 14.4L18.8744 16ZM17.8824 11.328L11.8984 11.328L11.8984 9.728L17.8824 9.728L17.8824 11.328ZM18.8744 6.88L11.8984 6.88L11.8984 5.28L18.8744 5.28L18.8744 6.88ZM24.4073 16L22.5993 16L22.5993 5.28L24.4073 5.28L24.4073 16ZM27.7033 6.88L19.3033 6.88L19.3033 5.28L27.7033 5.28L27.7033 6.88ZM41.1053 16L39.2973 16L39.2973 5.28L41.1053 5.28L41.1053 16ZM34.1453 16L32.3373 16L32.3372 5.28L34.1453 5.28L34.1453 16ZM40.1293 11.328L33.0573 11.328L33.0573 9.728L40.1293 9.728L40.1293 11.328ZM45.3015 16L43.4935 16L43.4935 5.28L45.3015 5.28L45.3015 16ZM51.5806 16.16C50.898 16.16 50.2473 16.0747 49.6286 15.904C49.01 15.7333 48.4553 15.4613 47.9646 15.088C47.4846 14.7147 47.106 14.2293 46.8286 13.632L48.1086 12.32C48.3006 12.8427 48.5886 13.264 48.9726 13.584C49.3566 13.904 49.7833 14.1387 50.2526 14.288C50.7326 14.4267 51.186 14.496 51.6126 14.496C51.9753 14.496 52.3006 14.4533 52.5886 14.368C52.8766 14.272 53.106 14.128 53.2766 13.936C53.458 13.7333 53.5486 13.4667 53.5486 13.136C53.5486 12.7947 53.458 12.5227 53.2766 12.32C53.0953 12.1173 52.834 11.9573 52.4926 11.84C52.162 11.7227 51.762 11.6107 51.2926 11.504L50.2686 11.28C49.8953 11.1947 49.522 11.088 49.1486 10.96C48.786 10.8213 48.45 10.64 48.1406 10.416C47.8313 10.1813 47.586 9.888 47.4046 9.536C47.2233 9.184 47.1326 8.752 47.1326 8.24C47.1326 7.568 47.3033 7.00267 47.6446 6.544C47.9966 6.07467 48.4606 5.72267 49.0366 5.488C49.6126 5.25333 50.2366 5.136 50.9086 5.136C51.89 5.136 52.754 5.33333 53.5006 5.728C54.258 6.12267 54.8286 6.688 55.2126 7.424L53.8526 8.72C53.554 8.05867 53.1326 7.57867 52.5886 7.28C52.0446 6.97067 51.4473 6.816 50.7966 6.816C50.4553 6.816 50.1513 6.86933 49.8846 6.976C49.618 7.08267 49.41 7.232 49.2606 7.424C49.1113 7.616 49.0366 7.85067 49.0366 8.128C49.0366 8.58667 49.2073 8.928 49.5486 9.152C49.9006 9.36533 50.3646 9.54133 50.9406 9.68L52.1406 9.968C52.5673 10.0747 52.9726 10.2027 53.3566 10.352C53.7513 10.5013 54.098 10.6933 54.3966 10.928C54.706 11.1627 54.946 11.456 55.1166 11.808C55.298 12.16 55.3886 12.592 55.3886 13.104C55.3886 13.744 55.2233 14.2933 54.8926 14.752C54.562 15.2107 54.1086 15.5627 53.5326 15.808C52.9566 16.0427 52.306 16.16 51.5806 16.16ZM60.5635 16L58.7555 16L58.7555 5.28L60.5635 5.28L60.5635 16ZM63.8595 6.88L55.4595 6.88L55.4595 5.28L63.8595 5.28L63.8595 6.88ZM69.0778 16.144C68.2884 16.144 67.5684 16.0053 66.9178 15.728C66.2778 15.44 65.7231 15.0453 65.2538 14.544C64.7844 14.0427 64.4218 13.4613 64.1658 12.8C63.9204 12.128 63.7978 11.4027 63.7978 10.624C63.7978 9.856 63.9204 9.14133 64.1658 8.48C64.4218 7.808 64.7844 7.22133 65.2538 6.72C65.7231 6.21867 66.2778 5.82933 66.9178 5.552C67.5684 5.264 68.2884 5.12 69.0778 5.12C69.8671 5.12 70.5818 5.264 71.2218 5.552C71.8724 5.82933 72.4271 6.21867 72.8858 6.72C73.3551 7.22133 73.7178 7.808 73.9738 8.48C74.2298 9.14133 74.3578 9.856 74.3578 10.624C74.3578 11.4027 74.2298 12.128 73.9738 12.8C73.7178 13.4613 73.3551 14.0427 72.8858 14.544C72.4271 15.0453 71.8724 15.44 71.2218 15.728C70.5818 16.0053 69.8671 16.144 69.0778 16.144ZM69.0778 14.416C69.8244 14.416 70.4484 14.256 70.9498 13.936C71.4511 13.616 71.8298 13.168 72.0858 12.592C72.3418 12.016 72.4698 11.36 72.4698 10.624C72.4698 9.888 72.3418 9.23733 72.0858 8.672C71.8298 8.10667 71.4511 7.664 70.9498 7.344C70.4484 7.01333 69.8244 6.848 69.0778 6.848C68.3418 6.848 67.7178 7.01333 67.2057 7.344C66.7044 7.664 66.3258 8.10667 66.0698 8.672C65.8244 9.23733 65.7018 9.888 65.7018 10.624C65.7018 11.36 65.8244 12.016 66.0698 12.592C66.3258 13.168 66.7044 13.616 67.2057 13.936C67.7178 14.256 68.3418 14.416 69.0778 14.416ZM81.0644 11.856L76.6964 11.856L76.6964 10.368L80.6964 10.368C81.0804 10.368 81.4324 10.3147 81.7524 10.208C82.0724 10.1013 82.323 9.92533 82.5044 9.68C82.6964 9.424 82.7924 9.08267 82.7924 8.656C82.7924 8.19733 82.6964 7.84 82.5044 7.584C82.323 7.328 82.0724 7.14667 81.7524 7.04C81.4324 6.93333 81.0804 6.88 80.6964 6.88L76.6964 6.88L76.6964 5.28L80.8724 5.28C81.5977 5.28 82.2484 5.408 82.8244 5.664C83.4004 5.90933 83.8537 6.27733 84.1844 6.768C84.515 7.25867 84.6804 7.872 84.6804 8.608C84.6804 9.29067 84.5204 9.86133 84.2004 10.32C83.8804 10.7787 83.4484 11.1253 82.9044 11.36C82.3604 11.584 81.747 11.696 81.0644 11.696L81.0644 11.856ZM77.8484 16L76.0404 16L76.0404 5.28L77.8484 5.28L77.8484 16ZM85.0484 16L82.9524 16L81.1124 12.816C80.9097 12.4533 80.659 12.2027 80.3604 12.064C80.0724 11.9253 79.6724 11.856 79.1604 11.856L81.1764 11.536C81.507 11.568 81.795 11.6427 82.0404 11.76C82.2857 11.8667 82.5044 12.016 82.6964 12.208C82.8884 12.3893 83.0644 12.624 83.2244 12.912L85.0484 16ZM90.1339 12.496L88.7419 12.496L84.5019 5.28L86.7419 5.28L88.3259 8.224L89.4459 10.688L90.6139 8.24L92.2779 5.28L94.3739 5.28L90.1339 12.496ZM90.3419 16L88.5339 16L88.5339 11.376L90.3419 11.376L90.3419 16Z" fill="white"/>
</svg>
