<svg width="24" height="24" viewBox="0 0 24 24" fill="none" xmlns="http://www.w3.org/2000/svg">
<g clipPath="url(#clip0_4996_9594)">
<path d="M23.6393 14.9029C22.0366 21.3315 15.5254 25.2438 9.09601 23.6407C2.66931 22.038 -1.24303 15.5265 0.360359 9.09837C1.96234 2.66903 8.4735 -1.24361 14.9009 0.359081C21.3298 1.96177 25.2419 8.47404 23.6391 14.903L23.6392 14.9029H23.6393Z" fill="#577184"/>
<path d="M17.291 10.2894C17.5299 8.69242 16.3141 7.834 14.6516 7.26136L15.1909 5.09816L13.8741 4.77005L13.3491 6.87629C13.0029 6.78995 12.6474 6.70859 12.2941 6.62794L12.8229 4.5078L11.5069 4.17969L10.9673 6.34218C10.6808 6.27695 10.3994 6.21249 10.1265 6.14457L10.128 6.13776L8.31209 5.6843L7.9618 7.09073C7.9618 7.09073 8.93876 7.31467 8.91817 7.32846C9.4514 7.46155 9.54783 7.81453 9.53182 8.09432L8.91747 10.5587C8.95418 10.568 9.00181 10.5815 9.05437 10.6026C9.01043 10.5917 8.96369 10.5798 8.91518 10.5682L8.05407 14.0205C7.9889 14.1825 7.82349 14.4256 7.45068 14.3333C7.46388 14.3524 6.49361 14.0944 6.49361 14.0944L5.83984 15.6017L7.55345 16.0289C7.87224 16.1089 8.18463 16.1925 8.49228 16.2712L7.94737 18.4592L9.26265 18.7873L9.80228 16.6225C10.1616 16.72 10.5103 16.81 10.8517 16.8948L10.3139 19.0494L11.6307 19.3775L12.1756 17.1936C14.421 17.6186 16.1094 17.4472 16.82 15.4163C17.3927 13.7811 16.7915 12.8379 15.6102 12.2229C16.4706 12.0244 17.1187 11.4585 17.2915 10.2895L17.2911 10.2892L17.291 10.2894ZM14.2825 14.5082C13.8755 16.1433 11.1224 15.2594 10.2298 15.0378L10.9529 12.139C11.8454 12.3619 14.7078 12.8028 14.2825 14.5082H14.2825ZM14.6897 10.2657C14.3185 11.753 12.027 10.9974 11.2837 10.8121L11.9392 8.18312C12.6826 8.36841 15.0764 8.71424 14.6898 10.2657H14.6897Z" fill="#0F212E"/>
</g>
<defs>
<clipPath id="clip0_4996_9594">
<rect width="24" height="24" fill="white"/>
</clipPath>
</defs>
</svg>
