<svg width="20" height="20" viewBox="0 0 20 20" fill="none" xmlns="http://www.w3.org/2000/svg">
<path d="M10 20C15.5228 20 20 15.5228 20 10C20 4.47715 15.5228 0 10 0C4.47715 0 0 4.47715 0 10C0 15.5228 4.47715 20 10 20Z" fill="#F3BA2F"/>
<path d="M7.9082 9.14062L10 7.04883L12.0918 9.14258L13.3086 7.92578L10 4.61523L6.69141 7.92383L7.9082 9.14062Z" fill="white"/>
<path d="M4.61523 10L5.83193 8.78326L7.04868 9.99996L5.83198 11.2167L4.61523 10Z" fill="white"/>
<path d="M7.9082 10.8594L10 12.9512L12.0918 10.8574L13.3105 12.0742H13.3086L10 15.3848L6.69141 12.0762L6.68945 12.0742L7.9082 10.8594Z" fill="white"/>
<path d="M12.9502 10.002L14.1669 8.78521L15.3836 10.0019L14.1669 11.2187L12.9502 10.002Z" fill="white"/>
<path d="M11.2344 10L10 8.76367L9.08789 9.67773L8.98242 9.78125L8.76562 9.99805L8.76367 10L8.76562 10.002L10 11.2363L11.2344 10Z" fill="white"/>
</svg>
