<svg width="24" height="24" viewBox="0 0 24 24" fill="none" xmlns="http://www.w3.org/2000/svg">
<g clipPath="url(#clip0_4996_9603)">
<path d="M21.0709 0L17.6457 3.15528L17.6693 5.34162L9.59055 12.7453C9.38864 12.9369 9.39928 13.2822 9.61417 13.5404C9.83082 13.8007 10.164 13.8547 10.3701 13.6646L18.3543 6.3354L20.5748 6.68323L24 3.5528L21.0945 3.08075L21.0709 0V0ZM9.51969 3.95031C4.25702 3.95031 0 8.45252 0 13.9876C0 19.5226 4.25702 24 9.51969 24C14.7823 24 19.063 19.5226 19.063 13.9876C19.063 12.1165 18.5675 10.3706 17.7165 8.86957L15.9213 10.5093C16.4258 11.5545 16.7008 12.7359 16.7008 13.9876C16.7008 18.2203 13.4496 21.6398 9.4252 21.6398C5.40081 21.6398 2.12598 18.2203 2.12598 13.9876C2.12598 9.75489 5.40081 6.31056 9.4252 6.31056C10.9038 6.31056 12.2704 6.77947 13.4173 7.57764L15.2126 5.93789C13.6223 4.69075 11.6517 3.95031 9.51969 3.95031V3.95031ZM9.4252 8.29814C6.46174 8.34209 4.07881 10.8953 4.08661 14.0124C4.09448 17.155 6.53174 19.6853 9.51969 19.677C12.5076 19.6687 14.9134 17.1302 14.9055 13.9876C14.9036 13.2216 14.7673 12.4937 14.5039 11.8261L13.7008 12.5217C13.8414 12.9764 13.9357 13.4594 13.937 13.9627C13.9434 16.5413 11.9713 18.6268 9.51969 18.6335C7.06804 18.6403 5.0852 16.5661 5.07874 13.9876C5.07231 11.4299 7.01726 9.328 9.44882 9.29193H9.49606C10.0904 9.29026 10.6555 9.41706 11.1732 9.63975L11.9528 8.91926C11.2066 8.51427 10.3681 8.29566 9.47244 8.29814H9.4252V8.29814ZM9.40157 11.2547C9.24871 11.2637 9.09625 11.2959 8.95276 11.3292C8.45573 11.4446 8.01913 11.7032 7.67717 12.0745C7.3352 12.4458 7.09121 12.914 6.99213 13.441C6.95876 13.6162 6.94442 13.802 6.94488 13.9876C6.94535 14.1746 6.95759 14.3577 6.99213 14.5342C7.06165 14.8868 7.20779 15.2153 7.3937 15.5031C7.57865 15.7916 7.8051 16.0289 8.07874 16.2236C8.4892 16.5156 8.98612 16.6971 9.51969 16.6957C9.83816 16.6948 10.1356 16.6349 10.4173 16.5217C10.6076 16.4453 10.7948 16.343 10.9606 16.2236C11.1028 16.1212 11.2185 16.0052 11.3386 15.8758C11.4548 15.7529 11.5534 15.6227 11.6457 15.4783C11.8308 15.1875 11.9792 14.8632 12.0472 14.5093C12.0782 14.3483 12.0925 14.1819 12.0945 14.0124L11.1969 14.8323C10.7374 15.2573 9.8275 14.9369 9.14173 14.1118C8.4615 13.2934 8.29226 12.3067 8.74016 11.8758L9.40157 11.2547V11.2547Z" fill="#577184"/>
</g>
<defs>
<clipPath id="clip0_4996_9603">
<rect width="24" height="24" fill="white"/>
</clipPath>
</defs>
</svg>
