<svg width="24" height="24" viewBox="0 0 24 24" fill="none" xmlns="http://www.w3.org/2000/svg">
<g clipPath="url(#clip0_4996_9597)">
<path d="M-5.24537e-07 12C-8.1423e-07 18.6274 5.37257 24 12 24C18.6274 24 24 18.6274 24 12C24 5.37258 18.6274 -2.34844e-07 12 -5.24537e-07C5.37257 -8.14231e-07 -2.34843e-07 5.37258 -5.24537e-07 12Z" fill="#577184" stroke="#0F212E" stroke-width="0.5"/>
<path fill-rule="evenodd" clip-rule="evenodd" d="M10.4776 12.0887C10.5963 11.6845 11.3065 11.5793 11.6037 11.6893C12.0559 11.8859 12.5671 12.194 12.5282 12.9751C12.5316 13.4324 12.0526 13.9628 12.0429 13.914C12.0427 13.9133 12.0978 13.3654 12.0858 13.156C12.1165 12.9238 11.8683 12.4276 11.8544 12.4679C11.6813 12.2125 11.387 12.1054 11.1577 12.0739C10.8869 12.0348 10.6909 12.0703 10.4776 12.0887L10.4776 12.0887Z" fill="#0F212E" stroke="#0F212E" stroke-width="0.5"/>
<path fill-rule="evenodd" clip-rule="evenodd" d="M13.4396 13.6786C13.5582 13.2744 14.2685 13.1691 14.5656 13.2792C15.0178 13.4757 15.5291 13.7839 15.4901 14.5649C15.4935 15.0222 15.0145 15.5526 15.0048 15.5038C15.0048 15.5031 15.0597 14.9552 15.0477 14.7458C15.0784 14.5137 14.8302 14.0174 14.8163 14.0577C14.6432 13.8023 14.3489 13.6952 14.1197 13.6637C13.8489 13.6246 13.6528 13.6602 13.4396 13.6786L13.4396 13.6786Z" fill="#0F212E" stroke="#0F212E" stroke-width="0.5"/>
<path fill-rule="evenodd" clip-rule="evenodd" d="M13.4991 16.5516C13.6178 16.1474 14.328 16.0422 14.6252 16.1522C15.0774 16.3488 15.5886 16.6569 15.5497 17.4379C15.5531 17.8953 15.0741 18.4257 15.0644 18.3769C15.0641 18.3761 15.1193 17.8283 15.1073 17.6189C15.138 17.3867 14.8897 16.8905 14.8759 16.9307C14.7027 16.6754 14.4085 16.5683 14.1792 16.5368C13.9084 16.4977 13.7124 16.5332 13.4991 16.5516Z" fill="#0F212E" stroke="#0F212E" stroke-width="0.5"/>
<path fill-rule="evenodd" clip-rule="evenodd" d="M10.5021 15.2059C10.6207 14.8017 11.3309 14.6965 11.6281 14.8065C12.0803 15.0031 12.5916 15.3112 12.5526 16.0922C12.556 16.5496 12.077 17.08 12.0673 17.0312C12.0671 17.0304 12.1222 16.4826 12.1102 16.2732C12.1409 16.041 11.8926 15.5448 11.8788 15.585C11.7057 15.3297 11.4114 15.2226 11.1822 15.1911C10.9114 15.152 10.7153 15.1875 10.5021 15.2059Z" fill="#0F212E" stroke="#0F212E" stroke-width="0.5"/>
<path fill-rule="evenodd" clip-rule="evenodd" d="M7.68564 13.7977C7.80427 13.3935 8.51452 13.2882 8.81171 13.3983C9.2639 13.5948 9.77515 13.903 9.73618 14.684C9.73957 15.1414 9.26062 15.6718 9.25091 15.623C9.25066 15.6223 9.30584 15.0744 9.29383 14.865C9.32453 14.6328 9.07623 14.1366 9.06241 14.1768C8.88927 13.9215 8.59499 13.8144 8.36575 13.7829C8.09495 13.7438 7.89888 13.7793 7.68564 13.7977L7.68564 13.7977Z" fill="#0F212E" stroke="#0F212E" stroke-width="0.5"/>
<path fill-rule="evenodd" clip-rule="evenodd" d="M4.81357 11.9696C4.9322 11.5654 5.64248 11.4601 5.93967 11.5702C6.39186 11.7667 6.90308 12.0749 6.86411 12.8559C6.8675 13.3133 6.38858 13.8437 6.37887 13.7949C6.37887 13.7941 6.43377 13.2463 6.42176 13.0369C6.45246 12.8047 6.20419 12.3085 6.19036 12.3487C6.01723 12.0933 5.72295 11.9863 5.49371 11.9548C5.22291 11.9156 5.02681 11.9512 4.81357 11.9696L4.81357 11.9696Z" fill="#0F212E" stroke="#0F212E" stroke-width="0.5"/>
<path fill-rule="evenodd" clip-rule="evenodd" d="M7.62705 16.7332C7.74568 16.3291 8.45596 16.2238 8.75315 16.3339C9.20534 16.5304 9.71655 16.8386 9.67759 17.6196C9.68098 18.0769 9.20202 18.6073 9.19231 18.5585C9.19207 18.5578 9.24724 18.0099 9.23523 17.8005C9.26594 17.5684 9.01767 17.0721 9.00384 17.1124C8.8307 16.857 8.5364 16.7499 8.30715 16.7184C8.03636 16.6793 7.84029 16.7148 7.62705 16.7333L7.62705 16.7332Z" fill="#0F212E" stroke="#0F212E" stroke-width="0.5"/>
<path fill-rule="evenodd" clip-rule="evenodd" d="M10.4376 18.077C10.5562 17.6728 11.2665 17.5675 11.5637 17.6776C12.0159 17.8741 12.5271 18.1823 12.4881 18.9633C12.4915 19.4207 12.0126 19.9511 12.0029 19.9023C12.0029 19.9016 12.0578 19.3537 12.0458 19.1443C12.0765 18.9121 11.8282 18.4159 11.8144 18.4562C11.6413 18.2008 11.3469 18.0937 11.1177 18.0622C10.8469 18.0231 10.6508 18.0586 10.4376 18.077L10.4376 18.077Z" fill="#0F212E" stroke="#0F212E" stroke-width="0.5"/>
<path fill-rule="evenodd" clip-rule="evenodd" d="M13.1106 19.4469C13.1392 19.1038 13.6907 18.903 13.9468 18.9424C14.3412 19.0256 14.8011 19.1886 14.8981 19.8204C14.976 20.1861 14.6795 20.6893 14.6637 20.6518C14.6637 20.6513 14.6176 20.2035 14.5736 20.0378C14.5601 19.8469 14.2798 19.4902 14.2753 19.5247C14.0948 19.3486 13.8415 19.3111 13.6528 19.3235C13.4295 19.3365 13.2784 19.3972 13.1106 19.4469Z" fill="#0F212E" stroke="#0F212E" stroke-width="0.5"/>
<path fill-rule="evenodd" clip-rule="evenodd" d="M15.5262 20.3579C15.4825 20.0847 15.9301 19.8025 16.1646 19.7746C16.5303 19.7491 16.97 19.7706 17.183 20.2395C17.3254 20.506 17.1644 20.965 17.1429 20.9395C17.1428 20.939 17.0119 20.6015 16.9396 20.4828C16.8892 20.3374 16.5695 20.1243 16.5725 20.1521C16.3773 20.0565 16.1457 20.0853 15.9811 20.138C15.7862 20.1993 15.6647 20.2809 15.5262 20.3579Z" fill="#0F212E" stroke="#0F212E" stroke-width="0.5"/>
<path fill-rule="evenodd" clip-rule="evenodd" d="M16.3187 17.8892C16.399 17.6488 16.8884 17.584 17.0938 17.6484C17.4064 17.7636 17.7601 17.945 17.7361 18.4088C17.7403 18.6804 17.4119 18.9969 17.405 18.9679C17.4051 18.9677 17.4408 18.642 17.4317 18.5177C17.4521 18.3798 17.279 18.0859 17.2696 18.1099C17.1492 17.9588 16.9459 17.8961 16.7876 17.8782C16.6008 17.8558 16.4657 17.8775 16.3187 17.8892L16.3187 17.8892Z" fill="#0F212E" stroke="#0F212E" stroke-width="0.5"/>
<path fill-rule="evenodd" clip-rule="evenodd" d="M16.1751 15.0285C16.281 14.6635 16.9152 14.5684 17.1806 14.6678C17.5843 14.8453 18.0407 15.1237 18.0059 15.8291C18.0091 16.2422 17.5813 16.7213 17.5727 16.6772C17.5727 16.6765 17.6217 16.1817 17.611 15.9926C17.6384 15.7829 17.4167 15.3346 17.4044 15.371C17.2498 15.1403 16.987 15.0436 16.7824 15.0152C16.5406 14.9798 16.3655 15.0119 16.1751 15.0286L16.1751 15.0285Z" fill="#0F212E" stroke="#0F212E" stroke-width="0.5"/>
<path fill-rule="evenodd" clip-rule="evenodd" d="M18.7711 16.0989C18.8421 15.8414 19.267 15.7743 19.4448 15.8444C19.7153 15.9697 20.0211 16.166 19.9978 16.6637C20.0002 16.9552 19.7133 17.2932 19.7075 17.2621C19.7075 17.2616 19.7403 16.9125 19.7332 16.779C19.7516 16.6311 19.603 16.3149 19.5947 16.3405C19.4912 16.1778 19.3151 16.1096 19.178 16.0895C19.016 16.0645 18.8987 16.0873 18.7711 16.0989L18.7711 16.0989Z" fill="#0F212E" stroke="#0F212E" stroke-width="0.5"/>
<path fill-rule="evenodd" clip-rule="evenodd" d="M18.9056 13.2443C18.9789 12.925 19.4181 12.8418 19.6019 12.9288C19.8815 13.0841 20.1976 13.3275 20.1735 13.9445C20.1759 14.3058 19.8795 14.7248 19.8734 14.6863C19.8734 14.6858 19.9074 14.2529 19.9 14.0875C19.9189 13.904 19.7654 13.512 19.7569 13.5438C19.6498 13.3421 19.4679 13.2575 19.3261 13.2326C19.1586 13.2017 19.0374 13.2298 18.9056 13.2443L18.9056 13.2443Z" fill="#0F212E" stroke="#0F212E" stroke-width="0.5"/>
<path fill-rule="evenodd" clip-rule="evenodd" d="M16.8705 12.0303C16.8831 11.7932 17.2221 11.8583 17.3816 11.9844C17.6277 12.1948 17.9157 12.4877 17.9858 12.9812C18.0398 13.2751 17.8636 13.5258 17.8533 13.4927C17.8534 13.4922 17.8177 13.1512 17.7878 13.0147C17.7764 12.8716 17.5969 12.5071 17.5946 12.5303C17.4798 12.3343 17.3221 12.2107 17.2051 12.1477C17.0668 12.0721 16.9738 12.0583 16.8705 12.0304L16.8705 12.0303Z" fill="#0F212E" stroke="#0F212E" stroke-width="0.5"/>
<path fill-rule="evenodd" clip-rule="evenodd" d="M19.5162 10.5443C19.5739 10.3807 19.8957 10.5557 20.029 10.7058C20.2315 10.9486 20.4597 11.2659 20.4346 11.6428C20.4317 11.8719 20.2102 11.9829 20.2063 11.9555C20.2065 11.955 20.2364 11.6996 20.2331 11.5914C20.249 11.4855 20.1416 11.1585 20.135 11.1742C20.0592 10.9914 19.9272 10.8438 19.8239 10.7547C19.7018 10.6485 19.6129 10.6034 19.5163 10.5443L19.5162 10.5443Z" fill="#0F212E" stroke="#0F212E" stroke-width="0.5"/>
<path fill-rule="evenodd" clip-rule="evenodd" d="M8.36832 7.47126C8.36832 7.27151 8.7109 7.37498 8.87745 7.50477C9.13517 7.71853 9.43939 8.00845 9.5363 8.43787C9.60628 8.69534 9.44351 8.88342 9.43133 8.85381C9.43138 8.85333 9.37717 8.55849 9.33988 8.43823C9.32075 8.31494 9.12122 7.97963 9.12028 7.99906C8.99472 7.81611 8.83008 7.68869 8.70961 7.61856C8.56701 7.53465 8.47327 7.50972 8.36832 7.47128L8.36832 7.47126Z" fill="#0F212E" stroke="#0F212E" stroke-width="0.5"/>
<path fill-rule="evenodd" clip-rule="evenodd" d="M21.0127 11.6211C21.0089 11.4124 21.2615 11.4454 21.3856 11.5445C21.578 11.7114 21.8058 11.9476 21.8846 12.3751C21.942 12.6284 21.825 12.8609 21.8155 12.8327C21.8156 12.8322 21.7706 12.5359 21.7411 12.4185C21.7249 12.2938 21.5728 11.9872 21.5724 12.0077C21.4772 11.8441 21.3545 11.747 21.2651 11.7002C21.1593 11.6437 21.0902 11.6382 21.0128 11.6211L21.0127 11.6211Z" fill="#0F212E" stroke="#0F212E" stroke-width="0.5"/>
<path fill-rule="evenodd" clip-rule="evenodd" d="M21.1454 9.33095C21.1732 9.12411 21.4179 9.19494 21.5256 9.31171C21.6905 9.50577 21.8799 9.77377 21.893 10.2082C21.9114 10.4673 21.7604 10.6794 21.7553 10.6501C21.7554 10.6496 21.7553 10.35 21.7447 10.2294C21.7476 10.1037 21.6436 9.77762 21.6402 9.79785C21.5708 9.6217 21.4642 9.50718 21.383 9.44732C21.2869 9.37553 21.2195 9.35965 21.1456 9.33096L21.1454 9.33095Z" fill="#0F212E" stroke="#0F212E" stroke-width="0.5"/>
<path fill-rule="evenodd" clip-rule="evenodd" d="M20.9729 14.312C21.0302 14.0789 21.2734 13.9941 21.3686 14.0459C21.5122 14.1409 21.671 14.297 21.6246 14.7404C21.6076 14.998 21.4225 15.3163 21.4213 15.289C21.4214 15.2883 21.4632 14.9766 21.4682 14.8584C21.4886 14.7259 21.4261 14.4541 21.4198 14.4773C21.3725 14.339 21.2781 14.2889 21.2024 14.2793C21.113 14.2668 21.0455 14.2939 20.9731 14.312L20.9729 14.312Z" fill="#0F212E" stroke="#0F212E" stroke-width="0.5"/>
<path fill-rule="evenodd" clip-rule="evenodd" d="M18.2407 18.6795C18.27 18.4869 18.6679 18.3389 18.8492 18.3439C19.1278 18.3641 19.451 18.4244 19.5036 18.7693C19.5494 18.9675 19.3253 19.2668 19.315 19.247C19.3151 19.2468 19.294 19.0008 19.2665 18.9116C19.2619 18.8064 19.0716 18.6265 19.0675 18.646C18.9436 18.56 18.7642 18.5559 18.6295 18.5752C18.4702 18.5972 18.361 18.6409 18.2403 18.6796L18.2407 18.6795Z" fill="#0F212E" stroke="#0F212E" stroke-width="0.5"/>
<path fill-rule="evenodd" clip-rule="evenodd" d="M17.629 20.6019C17.6503 20.4044 17.9904 20.1441 18.147 20.0966C18.3879 20.0358 18.6682 20.0014 18.7209 20.3246C18.7647 20.5058 18.5776 20.8643 18.5684 20.8478C18.5684 20.8476 18.5447 20.6124 18.5193 20.5328C18.5118 20.4309 18.345 20.3095 18.3419 20.3298C18.2331 20.2813 18.0782 20.3291 17.9624 20.387C17.8254 20.4547 17.732 20.5291 17.6287 20.6021L17.629 20.6019Z" fill="#0F212E" stroke="#0F212E" stroke-width="0.5"/>
<path fill-rule="evenodd" clip-rule="evenodd" d="M15.52 21.9485C15.6639 21.7706 16.1619 21.5829 16.3462 21.5628C16.6222 21.5432 16.9207 21.5537 16.7719 21.858C16.7025 22.0307 16.2948 22.3315 16.2959 22.315C16.296 22.3148 16.4188 22.0955 16.4432 22.0187C16.4991 21.9241 16.4097 21.7878 16.394 21.8059C16.3165 21.7451 16.1337 21.7657 15.9831 21.8015C15.8056 21.843 15.6671 21.8973 15.5196 21.9486L15.52 21.9485Z" fill="#0F212E" stroke="#0F212E" stroke-width="0.5"/>
<path fill-rule="evenodd" clip-rule="evenodd" d="M19.692 19.2148C19.7555 19.0747 20.086 18.8901 20.221 18.8564C20.4257 18.8134 20.6553 18.789 20.6205 19.0181C20.6123 19.1466 20.3795 19.4008 20.3761 19.3891C20.3761 19.389 20.4132 19.2222 20.4119 19.1658C20.4303 19.0935 20.327 19.0074 20.3198 19.0218C20.2452 18.9874 20.1115 19.0213 20.0063 19.0624C19.882 19.1104 19.7906 19.1632 19.6917 19.2149L19.692 19.2148Z" fill="#0F212E" stroke="#0F212E" stroke-width="0.5"/>
<path fill-rule="evenodd" clip-rule="evenodd" d="M20.4099 17.0887C20.5054 16.897 20.8531 16.704 20.9836 16.6868C21.1794 16.6727 21.3925 16.6921 21.2983 17.0224C21.2562 17.2101 20.9767 17.5299 20.9768 17.5118C20.9766 17.5116 21.056 17.274 21.0706 17.1902C21.1077 17.088 21.0378 16.9356 21.0273 16.9551C20.9697 16.8863 20.8404 16.904 20.7345 16.9393C20.6096 16.9802 20.513 17.0363 20.4099 17.0887L20.4099 17.0887Z" fill="#0F212E" stroke="#0F212E" stroke-width="0.5"/>
<path fill-rule="evenodd" clip-rule="evenodd" d="M21.955 15.4539C21.9962 15.2846 22.1865 15.0665 22.2624 15.0282C22.3771 14.9799 22.5047 14.9549 22.4752 15.2333C22.465 15.3896 22.3253 15.6945 22.3239 15.6802C22.3239 15.68 22.352 15.4776 22.3538 15.4089C22.3671 15.3212 22.3142 15.2143 22.3095 15.2317C22.27 15.1883 22.1948 15.227 22.1351 15.2748C22.0645 15.3307 22.0117 15.3931 21.9549 15.4541L21.955 15.4539Z" fill="#0F212E" stroke="#0F212E" stroke-width="0.5"/>
<path fill-rule="evenodd" clip-rule="evenodd" d="M22.2935 10.4527C22.2886 10.308 22.4551 10.3309 22.5358 10.3996C22.6608 10.5154 22.8087 10.6793 22.8599 10.9758C22.8971 11.1516 22.8213 11.3129 22.8152 11.2933C22.8152 11.2931 22.786 11.0874 22.7668 11.0059C22.7559 10.9194 22.6574 10.7067 22.6572 10.721C22.5953 10.6075 22.5157 10.5401 22.4576 10.5076C22.3889 10.4685 22.344 10.4646 22.2937 10.4527L22.2935 10.4527Z" fill="#0F212E" stroke="#0F212E" stroke-width="0.5"/>
<path fill-rule="evenodd" clip-rule="evenodd" d="M22.2271 12.8395C22.2222 12.6947 22.3887 12.7176 22.4693 12.7863C22.5943 12.9021 22.7423 13.066 22.7935 13.3626C22.8307 13.5383 22.7548 13.6996 22.7487 13.68C22.7487 13.6798 22.7196 13.4742 22.7004 13.3926C22.6895 13.3062 22.591 13.0935 22.5908 13.1077C22.5289 12.9942 22.4493 12.9268 22.3912 12.8943C22.3224 12.8552 22.2776 12.8514 22.2273 12.8394L22.2271 12.8395Z" fill="#0F212E" stroke="#0F212E" stroke-width="0.5"/>
<path fill-rule="evenodd" clip-rule="evenodd" d="M5.0488 9.0463C5.1452 8.72589 5.72234 8.64243 5.96384 8.72968C6.3313 8.88549 6.74674 9.12978 6.71509 9.74894C6.71776 10.1115 6.32864 10.532 6.32074 10.4933C6.32074 10.4928 6.36538 10.0584 6.35562 9.89239C6.38056 9.70833 6.1788 9.31494 6.16756 9.34686C6.02687 9.1444 5.78773 9.05952 5.60144 9.03454C5.3814 9.00353 5.22208 9.03172 5.0488 9.04631L5.0488 9.0463Z" fill="#0F212E" stroke="#0F212E" stroke-width="0.5"/>
<path fill-rule="evenodd" clip-rule="evenodd" d="M5.53735 6.30534C5.62065 6.04834 6.11934 5.98141 6.32798 6.05139C6.64549 6.17636 7.00438 6.3723 6.97704 6.86892C6.97947 7.15972 6.64315 7.49697 6.63634 7.46594C6.63634 7.46546 6.67489 7.11712 6.66646 6.98398C6.68802 6.83635 6.51369 6.52082 6.50398 6.54642C6.38242 6.38403 6.17581 6.31595 6.01486 6.29592C5.82474 6.27105 5.68707 6.29374 5.53735 6.30536L5.53735 6.30534Z" fill="#0F212E" stroke="#0F212E" stroke-width="0.5"/>
<path fill-rule="evenodd" clip-rule="evenodd" d="M3.05906 10.581C3.18244 10.3236 3.72519 10.4096 3.93925 10.5539C4.26252 10.794 4.62072 11.1258 4.52536 11.666C4.48906 11.9883 4.08434 12.2532 4.0812 12.2168C4.08124 12.2163 4.16887 11.8435 4.17756 11.6936C4.2203 11.5373 4.07564 11.1325 4.06183 11.1577C3.9533 10.9392 3.74115 10.7976 3.5715 10.7238C3.37129 10.6353 3.22091 10.6161 3.05906 10.581L3.05906 10.581Z" fill="#0F212E" stroke="#0F212E" stroke-width="0.5"/>
<path fill-rule="evenodd" clip-rule="evenodd" d="M2.08046 9.27889C2.14586 9.10015 2.37952 9.22943 2.46677 9.3634C2.59758 9.58228 2.73956 9.87429 2.67384 10.2689C2.64369 10.5068 2.45479 10.6577 2.45504 10.6299C2.45508 10.6294 2.50999 10.3598 2.52045 10.2482C2.54607 10.1358 2.50082 9.81443 2.49358 9.83171C2.45578 9.65456 2.36926 9.5229 2.29831 9.44724C2.21467 9.35689 2.14969 9.32455 2.08046 9.2789L2.08046 9.27889Z" fill="#0F212E" stroke="#0F212E" stroke-width="0.5"/>
<path fill-rule="evenodd" clip-rule="evenodd" d="M3.62317 7.41964C3.70293 7.23209 4.04486 7.29354 4.17889 7.39812C4.38113 7.57211 4.60474 7.8128 4.54055 8.20611C4.51531 8.44065 4.2579 8.63428 4.25615 8.60774C4.25618 8.6075 4.31427 8.33595 4.32086 8.22686C4.34897 8.11305 4.26064 7.81882 4.25175 7.83718C4.18487 7.67839 4.05204 7.57582 3.94551 7.52248C3.81981 7.45849 3.72504 7.44484 3.62317 7.41964Z" fill="#0F212E" stroke="#0F212E" stroke-width="0.5"/>
<path fill-rule="evenodd" clip-rule="evenodd" d="M4.15272 5.19835C4.21752 5.02687 4.49532 5.08306 4.60424 5.17867C4.76856 5.33776 4.95028 5.55784 4.89812 5.91746C4.87754 6.13192 4.66845 6.30897 4.66702 6.28469C4.66705 6.28447 4.71426 6.03618 4.71961 5.93644C4.74237 5.83237 4.67069 5.56335 4.66345 5.58013C4.60911 5.43494 4.50118 5.34116 4.41461 5.29239C4.31247 5.23388 4.23548 5.2214 4.15272 5.19835Z" fill="#0F212E" stroke="#0F212E" stroke-width="0.5"/>
<path fill-rule="evenodd" clip-rule="evenodd" d="M6.12182 4.13016C6.15632 3.93885 6.52332 3.83386 6.68753 3.85921C6.93951 3.91083 7.2303 4.00784 7.26394 4.36207C7.29803 4.56728 7.08178 4.84467 7.07328 4.82352C7.07325 4.82328 7.06434 4.57246 7.04324 4.47934C7.04341 4.37247 6.87808 4.16959 6.87357 4.18882C6.76463 4.08807 6.60211 4.06384 6.47907 4.0683C6.33369 4.0727 6.23282 4.10476 6.1217 4.13019L6.12182 4.13016Z" fill="#0F212E" stroke="#0F212E" stroke-width="0.5"/>
<path fill-rule="evenodd" clip-rule="evenodd" d="M15.0275 22.8863C14.6146 22.9984 14.3765 23.0935 13.7303 23.178C12.8386 23.3222 11.9629 23.3726 11.244 23.3185C9.83977 23.182 9.45332 23.009 8.29271 22.6703C6.69403 22.0104 6.0251 21.5885 5.02802 20.8122C4.16461 20.1187 3.12825 19.1172 2.12005 17.3984C1.53593 16.1404 0.936034 14.9052 0.747132 12.7748C0.718898 11.6373 0.747001 10.6396 0.920115 9.93359C1.28203 10.1169 1.35577 10.468 1.52177 10.808C1.83574 11.1679 2.1786 11.4702 2.41671 11.9817L2.76788 12.78C3.11151 12.7812 3.7831 12.8714 4.02235 13.1846C4.26457 13.7359 4.39177 14.0419 4.38528 14.8769C4.65429 14.7462 5.19151 14.6029 5.49952 14.6281C5.96535 14.7686 6.19697 15.0186 6.45902 15.4442C6.58901 15.7807 6.80212 16.0199 6.68704 16.3967L6.60419 17.0111C6.98844 18.3562 7.37372 18.6734 8.20616 18.9109C8.49953 18.9245 8.7929 18.8552 9.08627 18.9772C9.60881 19.2646 9.89343 19.427 10.0909 19.755L10.4879 20.1972C10.9512 20.0983 11.3514 20.1046 12.0547 20.2456C12.4593 20.5027 12.6237 20.6586 12.7897 20.8759C12.7929 21.0232 12.766 20.6614 13.0086 21.3665C13.084 21.3536 13.4312 21.2783 13.7324 21.2691C13.9631 21.262 14.1364 21.3166 14.4788 21.3233C14.8051 21.4468 14.9358 21.5478 15.0178 21.834C15.1459 22.0982 15.1608 21.9983 15.2545 22.5731C15.3057 22.6739 15.3642 22.7344 15.0275 22.8863Z" fill="#0F212E" stroke="#0F212E" stroke-width="0.5"/>
<path d="M2.88413 14.7634C3.13467 15.2266 3.49936 15.4261 3.6987 15.2091C3.89804 14.992 3.85653 14.4406 3.60599 13.9774C3.35545 13.5142 2.99075 13.3146 2.79141 13.5317C2.59208 13.7487 2.63359 14.3002 2.88413 14.7634Z" fill="#577184"/>
<path d="M5.34171 16.8801C5.79233 17.1303 6.17417 16.9281 6.19456 16.4284C6.21495 15.9287 5.86617 15.3206 5.41555 15.0704C4.96492 14.8201 4.58308 15.0223 4.56269 15.5221C4.5423 16.0218 4.89108 16.6298 5.34171 16.8801Z" fill="#577184"/>
<path d="M3.83193 17.8231C4.20664 18.0312 4.52415 17.863 4.54111 17.4475C4.55806 17.0319 4.26804 16.5264 3.89333 16.3182C3.51861 16.1101 3.2011 16.2783 3.18414 16.6938C3.16719 17.1094 3.45721 17.615 3.83193 17.8231Z" fill="#577184"/>
<path d="M2.09247 16.1338C2.3773 16.3547 2.66338 16.2572 2.73144 15.916C2.79951 15.5747 2.62379 15.119 2.33897 14.8981C2.05414 14.6771 1.76806 14.7747 1.7 15.1159C1.63193 15.4571 1.80764 15.9129 2.09247 16.1338Z" fill="#577184"/>
<path d="M1.77148 13.4079C1.98515 13.642 2.23994 13.587 2.34057 13.2851C2.44121 12.9831 2.34958 12.5485 2.13591 12.3145C1.92224 12.0804 1.66744 12.1354 1.5668 12.4374C1.46617 12.7393 1.55781 13.1739 1.77148 13.4079Z" fill="#577184"/>
<path d="M6.11161 19.3351C6.51384 19.4833 6.80177 19.2684 6.75472 18.8552C6.70766 18.442 6.34344 17.9868 5.9412 17.8386C5.53897 17.6904 5.25104 17.9053 5.29809 18.3185C5.34515 18.7318 5.70938 19.1869 6.11161 19.3351Z" fill="#577184"/>
<path d="M4.59283 19.7258C4.87346 19.8703 5.07436 19.7516 5.04153 19.4605C5.0087 19.1695 4.75457 18.8163 4.47394 18.6718C4.19331 18.5273 3.99244 18.6461 4.02527 18.9372C4.0581 19.2282 4.3122 19.5813 4.59283 19.7258Z" fill="#577184"/>
<path d="M6.70602 21.1253C7.06519 21.2894 7.32245 21.1686 7.28065 20.8552C7.23885 20.5419 6.91381 20.1548 6.55464 19.9907C6.19548 19.8265 5.93818 19.9473 5.97998 20.2607C6.02178 20.574 6.34685 20.9611 6.70602 21.1253Z" fill="#577184"/>
<path d="M8.94246 20.7512C9.371 20.7629 9.57489 20.4672 9.39785 20.0908C9.2208 19.7144 8.72988 19.3998 8.30134 19.3882C7.8728 19.3766 7.66891 19.6723 7.84595 20.0487C8.02299 20.4251 8.51392 20.7396 8.94246 20.7512Z" fill="#577184"/>
<path d="M9.1659 22.2627C9.55082 22.3267 9.77842 22.142 9.67427 21.8502C9.57013 21.5583 9.17368 21.2698 8.78877 21.2058C8.40385 21.1418 8.17622 21.3264 8.28036 21.6183C8.38451 21.9101 8.78099 22.1987 9.1659 22.2627Z" fill="#577184"/>
<path d="M11.7759 21.8417C12.1965 21.7584 12.3299 21.425 12.074 21.097C11.8181 20.769 11.2698 20.5706 10.8493 20.6539C10.4288 20.7372 10.2953 21.0706 10.5512 21.3986C10.8071 21.7266 11.3554 21.9249 11.7759 21.8417Z" fill="#577184"/>
<path d="M14.2293 22.4801C14.5694 22.3143 14.6079 22.0003 14.3152 21.7789C14.0226 21.5574 13.5096 21.5124 13.1695 21.6782C12.8294 21.8441 12.791 22.158 13.0836 22.3795C13.3763 22.6009 13.8892 22.646 14.2293 22.4801Z" fill="#577184"/>
<path d="M11.64 22.8899C12.0322 22.8722 12.2246 22.7026 12.0697 22.5111C11.9149 22.3196 11.4714 22.1787 11.0793 22.1964C10.6871 22.2141 10.4947 22.3838 10.6495 22.5753C10.8044 22.7668 11.2478 22.9076 11.64 22.8899Z" fill="#577184"/>
<path fill-rule="evenodd" clip-rule="evenodd" d="M7.84183 10.6802C7.91622 10.3745 8.42264 10.3009 8.63867 10.3871C8.96804 10.5402 9.34274 10.7786 9.33547 11.3711C9.35 11.7182 9.02067 12.1165 9.01242 12.0794C9.01242 12.0789 9.03727 11.6635 9.02306 11.5045C9.0388 11.3285 8.84778 10.9497 8.83899 10.9802C8.70806 10.7848 8.49426 10.7009 8.32906 10.675C8.13391 10.6429 7.99427 10.6681 7.84183 10.6802L7.84183 10.6802Z" fill="#0F212E" stroke="#0F212E" stroke-width="0.5"/>
</g>
<defs>
<clipPath id="clip0_4996_9597">
<rect width="24" height="24" fill="white"/>
</clipPath>
</defs>
</svg>
