<svg width="31" height="24" viewBox="0 0 31 24" fill="none" xmlns="http://www.w3.org/2000/svg">
<g clipPath="url(#clip0_4996_9606)">
<path d="M22.0742 0.000234512C22.0377 0.00116896 22.0009 0.00381656 21.9636 0.00833306C21.8143 0.0259318 21.6609 0.0746788 21.5194 0.154107C21.378 0.237896 21.2482 0.343955 21.1383 0.480696C21.0243 0.617593 20.9299 0.776449 20.8356 0.939821C20.7964 0.935305 20.7532 0.930944 20.6746 0.913345C20.596 0.900107 20.4781 0.869271 20.3406 0.829557C20.199 0.785482 20.0378 0.728013 19.92 0.679422C19.8021 0.630831 19.7234 0.591117 19.6527 0.560124C19.582 0.533648 19.5114 0.52041 19.421 0.498295C19.3306 0.480696 19.2165 0.458581 19.1105 0.436466C19.0083 0.414506 18.91 0.396752 18.8038 0.374636C18.7017 0.357038 18.5838 0.339439 18.3756 0.308446C18.1672 0.28197 17.8647 0.246773 17.6329 0.215936C17.401 0.18946 17.232 0.171706 17.1022 0.167345C16.9687 0.162828 16.8705 0.171706 16.7997 0.18946C16.7289 0.211575 16.6818 0.237896 16.5993 0.268888C16.5128 0.295364 16.3912 0.330562 16.289 0.370276C16.1828 0.410145 16.1002 0.462942 16.0138 0.511533C15.9588 0.480696 15.8997 0.445343 15.8605 0.423228C15.8211 0.396752 15.8017 0.379309 15.7624 0.379309C15.727 0.374792 15.6758 0.388186 15.6326 0.414662C15.5855 0.445499 15.5423 0.485057 15.5069 0.538009C15.4715 0.590961 15.44 0.657307 15.3889 0.705898C15.3417 0.75885 15.2749 0.798564 15.2121 0.838278C15.1453 0.873631 15.0825 0.917706 15.0354 0.953059C14.9843 0.992773 14.9489 1.03249 14.9135 1.07672C14.8782 1.12515 14.8468 1.17826 14.7995 1.22249C14.7524 1.26657 14.6895 1.30628 14.6344 1.35036C14.5755 1.39459 14.5206 1.44318 14.4656 1.53584C14.4067 1.63303 14.3476 1.76977 14.2966 1.94202C14.2415 2.10975 14.1943 2.31735 14.1786 2.48945C14.1668 2.6617 14.1864 2.8028 14.2257 2.93969C14.265 3.08095 14.3279 3.21349 14.4695 3.41206C14.607 3.60627 14.827 3.86231 15.0157 4.09187C15.2044 4.31707 15.3654 4.5158 15.5619 4.73212C15.7585 4.94844 15.9864 5.18673 16.1318 5.31475C16.2732 5.44277 16.3321 5.46488 16.3911 5.51347C16.4501 5.55755 16.5129 5.63713 16.5601 5.7122C16.6112 5.78727 16.6504 5.86233 16.6976 5.93304C16.7408 6.00359 16.788 6.07414 16.8273 6.11386C16.8666 6.15357 16.8942 6.16245 16.9256 6.17569C16.9295 6.20668 16.9333 6.233 16.9568 6.26835C16.9765 6.29919 17.0119 6.33018 17.0472 6.36553C17.0394 6.38313 17.0317 6.40525 17.0396 6.44496C17.0473 6.48032 17.0711 6.53763 17.0946 6.5951C17.0238 6.67016 16.9529 6.74508 16.8666 6.85986C16.7801 6.97464 16.674 7.12929 16.5718 7.28378C16.4382 7.28378 16.3047 7.2883 16.1789 7.26619C16.0571 7.24423 15.9431 7.2 15.6758 7.03211C15.4126 6.86889 14.992 6.58638 14.6972 6.43624C14.4065 6.28175 14.2335 6.25963 14.1274 6.26399C14.0174 6.26851 13.9702 6.29934 13.9349 6.34342C13.9034 6.38749 13.8839 6.44496 13.8878 6.50679C13.8918 6.57298 13.9192 6.63917 13.9428 6.70552C13.8406 6.72748 13.7346 6.74523 13.6482 6.77622C13.5578 6.80706 13.4871 6.84677 13.4124 6.89101C13.2395 6.8379 13.0665 6.78946 12.7914 6.6658C12.5203 6.54214 12.1468 6.34794 11.8207 6.22864C11.4906 6.11386 11.2038 6.0785 10.9209 6.06963C10.6379 6.06527 10.3588 6.08754 10.0838 6.13597C9.80472 6.18908 9.52953 6.27287 9.28207 6.37877C9.03447 6.48468 8.81848 6.6127 8.61413 6.74523C8.40979 6.88197 8.22097 7.02323 8.07166 7.15125C7.92235 7.28363 7.81242 7.40744 7.67101 7.51786C7.5296 7.63265 7.35659 7.72967 7.22683 7.8267C7.09332 7.92388 6.99891 8.01219 6.86929 8.10049C6.73565 8.1888 6.56665 8.28146 6.38976 8.36977C6.21688 8.45807 6.03208 8.54653 5.87889 8.66132C5.72959 8.77158 5.61563 8.90832 5.49765 9.04522C5.63129 8.92156 5.76092 8.79354 5.89068 8.70539C6.0203 8.61257 6.14618 8.55526 6.27594 8.5023C6.13828 8.61257 5.99687 8.72315 5.88291 8.83793C5.76896 8.95707 5.68245 9.07169 5.59206 9.18648C5.50167 9.2969 5.4074 9.39844 5.266 9.51322C5.12057 9.62349 4.92399 9.7473 4.72352 9.8708C4.86105 9.81785 4.99469 9.76038 5.12445 9.69855C5.25809 9.63688 5.38369 9.56617 5.50944 9.49562C5.42307 9.57505 5.34072 9.65012 5.17561 9.77362C5.00661 9.89728 4.75887 10.065 4.51141 10.2373C4.77066 10.1136 5.03018 9.9901 5.19917 9.89292C5.36817 9.80025 5.44677 9.73406 5.52524 9.66787C5.41918 9.78701 5.31299 9.906 5.20694 10.0032C5.10074 10.0958 4.99871 10.1666 4.85716 10.2681C4.71174 10.374 4.52306 10.5153 4.33452 10.6565C4.42491 10.5947 4.51918 10.5332 4.63313 10.4713C4.75111 10.4139 4.89265 10.3564 5.03018 10.2991C4.96738 10.3388 4.90444 10.3742 4.78646 10.4757C4.6725 10.5772 4.50351 10.7405 4.3542 10.97C4.20087 11.1996 4.07125 11.4955 3.93761 11.7912C4.06737 11.5794 4.19699 11.3673 4.31885 11.2217C4.44071 11.0759 4.55453 10.9967 4.66848 10.9127C4.57033 11.0717 4.47592 11.2304 4.41312 11.4379C4.3463 11.6498 4.31095 11.9148 4.2756 12.1753C4.36599 11.8486 4.45638 11.5263 4.55467 11.2924C4.64894 11.0583 4.74723 10.9172 4.84538 10.7758C4.79825 10.8951 4.74723 11.0186 4.68443 11.2085C4.61761 11.3983 4.539 11.6587 4.38179 12.0605C4.22458 12.4578 3.98863 12.9965 3.7725 13.3895C3.55248 13.7824 3.35604 14.025 3.08876 14.2238C2.82549 14.4223 2.49138 14.5725 2.1613 14.727C2.44425 14.6343 2.72318 14.546 2.95899 14.4223C3.19093 14.3032 3.37961 14.1531 3.58797 13.8749C3.80022 13.5924 4.03188 13.1775 4.26381 12.7624C4.17342 12.9701 4.08303 13.1731 3.94939 13.4381C3.81589 13.7028 3.64287 14.0294 3.44643 14.2502C3.24999 14.4666 3.03372 14.5814 2.74675 14.6873C2.46393 14.7888 2.1143 14.8816 1.83135 14.961C1.5484 15.0405 1.33227 15.1023 1.16327 15.1863C0.998161 15.2657 0.876441 15.3627 0.758464 15.4597C0.943124 15.345 1.12792 15.2347 1.32839 15.1641C1.53273 15.0979 1.74872 15.0713 1.96097 15.0405C2.17308 15.0051 2.38547 14.9656 2.59369 14.9213C2.39323 15.0096 2.18888 15.0978 1.94531 15.2038C1.70159 15.3054 1.41864 15.4245 1.08467 15.5261C0.754582 15.6321 0.377222 15.7201 0 15.813C0.117839 15.8173 0.231795 15.8218 0.436141 15.7865C0.636605 15.7511 0.92732 15.6762 1.1788 15.6187C1.43042 15.5658 1.64641 15.535 1.86268 15.4996C1.76051 15.5395 1.65847 15.579 1.5405 15.6452C1.42266 15.7159 1.29303 15.8175 1.15939 16.003C1.08093 16.1112 1.00107 16.2479 0.920804 16.394C0.924686 16.3883 0.927181 16.3837 0.93134 16.378C1.0453 16.2146 1.23786 15.9939 1.40283 15.8748C1.56795 15.7555 1.70935 15.7335 1.8509 15.6938C1.9923 15.6541 2.13773 15.5923 2.44425 15.4289C2.75077 15.2612 3.21838 14.9919 3.68599 14.7226C3.39916 14.8992 3.11246 15.0758 2.86098 15.2524C2.6095 15.4245 2.38921 15.601 2.15339 15.7997C1.9137 15.9983 1.65833 16.2148 1.39895 16.4354C1.69369 16.2104 1.98454 15.9807 2.21245 15.813C2.43648 15.6407 2.59356 15.5304 2.75479 15.42C2.33029 15.7732 1.90982 16.1263 1.52469 16.3912C1.13957 16.6561 0.789795 16.8329 0.440023 17.0095C0.636605 16.9477 0.829167 16.8813 1.04142 16.7754C1.25754 16.6695 1.48532 16.5239 1.70547 16.3825C1.92548 16.2369 2.13385 16.0998 2.34207 15.9631C2.11028 16.1528 1.87848 16.3429 1.66235 16.568C1.44623 16.7932 1.24562 17.0536 1.15523 17.2786C1.06096 17.5038 1.07677 17.6982 1.09257 17.8924C1.08869 17.7512 1.08079 17.6099 1.12792 17.4509C1.17118 17.2964 1.26545 17.1198 1.45011 16.9388C1.63088 16.7578 1.90205 16.5723 2.24406 16.2853C2.58593 16.0028 2.99837 15.6231 3.41496 15.2434C3.11232 15.5526 2.80969 15.8615 2.60146 16.1353C2.38921 16.409 2.26749 16.6429 2.14951 16.877C2.2478 16.7004 2.34596 16.5194 2.58967 16.2325C2.83325 15.9498 3.2224 15.5524 3.61154 15.1595C3.24208 15.601 2.87651 16.0425 2.58967 16.4266C2.3027 16.8106 2.09461 17.1417 1.89027 17.4685C2.34221 16.8416 2.79416 16.2148 3.26565 15.6938C3.74116 15.1685 4.23636 14.7536 4.73142 14.3342C4.49963 14.546 4.27158 14.758 4.06335 14.9654C3.859 15.1729 3.67823 15.3759 3.50147 15.579C3.8041 15.2612 4.10272 14.9433 4.41714 14.6916C4.72754 14.4356 5.04987 14.2459 5.35638 14.0207C5.65888 13.8 5.9496 13.5482 6.11457 13.3097C6.27968 13.0758 6.32308 12.8553 6.36245 12.6346C6.37423 12.6565 6.38186 12.6741 6.41721 12.7315C6.44868 12.7889 6.50372 12.8816 6.55875 12.9788C6.64124 13.1024 6.72387 13.2261 6.84961 13.363C6.97535 13.4999 7.14032 13.6542 7.25428 13.7469C7.36435 13.8352 7.42341 13.8662 7.53737 13.9721C7.65534 14.078 7.82808 14.259 8.00096 14.4399C7.97739 14.5725 7.95382 14.7049 7.89892 14.8771C7.84777 15.0448 7.7614 15.2479 7.60419 15.4951C7.4431 15.7379 7.20326 16.0206 7.05797 16.1928C6.90852 16.3605 6.84961 16.4135 6.80247 16.4929C6.75131 16.5725 6.70806 16.6826 6.69628 16.8019C6.68449 16.9211 6.70418 17.0536 6.75922 17.1729C6.81425 17.2964 6.9045 17.4023 7.01846 17.4774C7.12854 17.5524 7.26218 17.5965 7.49009 17.7069C7.71801 17.8128 8.04033 17.9894 8.43724 18.2058C8.83414 18.4177 9.30564 18.6738 9.69076 18.9211C10.0759 19.1682 10.3785 19.4109 10.5514 19.5567C10.7204 19.7023 10.7557 19.7554 10.7911 19.7996C10.8264 19.8437 10.8618 19.8789 10.9012 19.8965C10.9404 19.9142 10.9838 19.9186 11.0191 19.9362C11.0506 19.9583 11.0779 19.9938 11.1054 20.0292C11.1368 20.0644 11.1723 20.0954 11.1919 20.1306C11.2077 20.1616 11.2037 20.1924 11.184 20.2189C11.1644 20.2453 11.1252 20.2675 11.1016 20.2807C11.0781 20.2985 11.0702 20.3072 11.0584 20.3337C11.0466 20.3645 11.0308 20.4132 11.023 20.4794C11.0151 20.5456 11.0153 20.6296 11.0191 20.6958C11.0271 20.7576 11.0388 20.7971 11.0506 20.8412C11.0271 20.828 11.0074 20.8194 10.9838 20.8194C10.9641 20.8149 10.9444 20.8238 10.9326 20.868C10.9209 20.9121 10.9168 20.9915 10.9719 21.1504C11.0268 21.3094 11.1409 21.5435 11.2587 21.7244C11.3767 21.901 11.5024 22.0245 11.5849 22.0819C11.6714 22.1437 11.7186 22.1393 11.7697 22.104C11.8207 22.0643 11.8796 21.9979 11.9505 21.8213C12.0173 21.6492 12.0998 21.3668 12.1471 21.1946C12.1981 21.0225 12.2136 20.9605 12.2136 20.8898C12.2136 20.8236 12.1981 20.7443 12.1824 20.6428C12.1666 20.5413 12.1547 20.4176 12.1429 20.2939C12.5359 20.6428 12.929 20.9915 13.1725 21.2122C13.4163 21.4329 13.5028 21.5301 13.5499 21.5919C13.597 21.6537 13.6049 21.6846 13.6364 21.733C13.6718 21.7861 13.7384 21.8524 13.7856 21.901C13.8367 21.9451 13.8681 21.9626 13.9034 21.9714C13.9349 21.9803 13.9665 21.9716 14.0175 22.0024C14.0687 22.0289 14.1355 22.0951 14.1865 22.1702C14.2377 22.2496 14.273 22.338 14.3084 22.4263C14.2377 22.4793 14.1668 22.5279 14.1197 22.5941C14.0726 22.6646 14.0488 22.7441 14.0488 22.85C14.0527 22.956 14.0882 23.0797 14.1197 23.2077C14.104 23.2342 14.0843 23.2605 14.0882 23.318C14.0882 23.3798 14.1118 23.4726 14.214 23.6095C14.3161 23.7463 14.5008 23.9227 14.6737 24.0331C14.8465 24.1436 15.0039 24.1876 15.1258 24.1965C15.2476 24.2097 15.3341 24.1876 15.3813 24.1568C15.4323 24.1258 15.4439 24.0862 15.4557 24.0509C15.4047 23.6271 15.3496 23.1988 15.2986 22.7749C15.2828 22.7529 15.2712 22.7266 15.2476 22.678C15.224 22.6251 15.1924 22.541 15.165 22.4483C15.1335 22.36 15.1101 22.2585 15.0354 22.0907C14.9568 21.923 14.831 21.6933 14.7563 21.5079C14.6856 21.3225 14.6699 21.1857 14.6543 21.1018C14.6346 21.018 14.6147 20.9826 14.5597 20.9342C14.5008 20.89 14.4143 20.8281 14.3043 20.7355C14.1943 20.6472 14.0685 20.5324 13.9428 20.4176C14.0057 20.4397 14.0726 20.466 14.1668 20.5146C14.2651 20.5676 14.3947 20.6472 14.5165 20.7619C14.6344 20.8767 14.7484 21.0223 14.827 21.1018C14.9017 21.1812 14.941 21.1946 14.996 21.2078C15.0549 21.2167 15.1296 21.2254 15.2397 21.2387C15.3458 21.2519 15.4912 21.2697 15.7348 21.3137C15.9785 21.3623 16.3202 21.4374 16.5875 21.4992C16.8546 21.5611 17.0433 21.6096 17.2044 21.6626C17.3616 21.7199 17.4914 21.7817 17.5936 21.8127C17.6996 21.8479 17.7782 21.8479 17.8843 21.8169C17.9944 21.7905 18.128 21.733 18.2499 21.6712C18.3678 21.605 18.4737 21.5388 18.5446 21.4682C18.6113 21.3932 18.6506 21.3183 18.6781 21.2343C18.7057 21.1549 18.7214 21.0621 18.7252 20.9516C18.7293 20.8457 18.7175 20.7177 18.7331 20.5014C18.7489 20.2851 18.7921 19.9762 18.8353 19.6627C18.8786 19.3492 18.9179 19.0357 18.9651 18.7664C19.0122 18.5015 19.0672 18.2808 19.0987 18.1086C19.1302 17.9321 19.142 17.8083 19.1576 17.6848C19.1969 17.6097 19.2403 17.5347 19.311 17.4464C19.3817 17.3581 19.4838 17.261 19.7274 17.1285C19.9711 16.9918 20.3601 16.815 20.5881 16.7047C20.816 16.5943 20.8867 16.5457 20.926 16.5281C20.9693 16.5105 20.985 16.5238 21.0125 16.537C21.04 16.5502 21.0833 16.5635 21.1501 16.5856C21.2129 16.6077 21.3033 16.6387 21.3661 16.6563C21.4329 16.6695 21.4761 16.6739 21.5351 16.7004C21.5979 16.7268 21.6805 16.7754 21.8141 16.8461C21.9516 16.9168 22.1364 17.0094 22.4665 17.1417C22.8006 17.2698 23.2762 17.4333 23.5276 17.5259C23.7791 17.6188 23.8066 17.632 23.834 17.6496C23.8655 17.6674 23.8929 17.6803 23.9244 17.6848C23.952 17.6935 23.9793 17.6938 24.0305 17.7247C24.0815 17.76 24.1523 17.8306 24.2153 17.9056C24.2781 17.9807 24.3252 18.06 24.3528 18.1351C24.3802 18.2101 24.3804 18.2808 24.3135 18.4132C24.2467 18.5501 24.1132 18.7488 23.9638 18.9476C23.8106 19.1418 23.6455 19.336 23.4844 19.4905C23.3233 19.6493 23.1619 19.7686 23.0559 19.8305C22.9498 19.8921 22.9027 19.901 22.8478 19.9188C22.7927 19.932 22.7376 19.9496 22.7062 19.9848C22.6748 20.0201 22.6709 20.0689 22.6709 20.1173C22.6079 20.1173 22.545 20.1175 22.494 20.1131C22.4428 20.1086 22.3996 20.0997 22.3721 20.082C22.3447 20.06 22.3329 20.029 22.3093 19.9804C22.2898 19.932 22.2583 19.8702 22.2189 19.8305C22.1797 19.7907 22.1324 19.7773 22.101 19.7819C22.0656 19.7862 22.0461 19.8082 22.0107 19.8214C21.9752 19.8348 21.9242 19.8435 21.8968 19.8347C21.8732 19.8303 21.8732 19.8083 21.8614 19.7951C21.8535 19.7862 21.8338 19.7775 21.7749 19.7864C21.716 19.7907 21.6177 19.8038 21.5588 19.8437C21.4998 19.8834 21.4802 19.9494 21.4605 20.0113C21.433 20.0069 21.4016 19.9982 21.374 19.9895C21.3898 19.9496 21.4054 19.9099 21.4093 19.879C21.4093 19.8481 21.3975 19.8305 21.3778 19.8261C21.3622 19.8261 21.3388 19.8393 21.2563 19.9012C21.1698 19.963 21.0203 20.0733 20.9025 20.1835C20.7885 20.2896 20.702 20.3998 20.6549 20.497C20.6077 20.5942 20.5958 20.6735 20.6155 20.7397C20.6352 20.806 20.6863 20.8591 20.7335 20.8945C20.7806 20.9297 20.8277 20.9518 20.9614 20.9695C21.091 20.9828 21.3112 20.9915 21.4487 21.0091C21.5823 21.0269 21.6333 21.0533 21.6884 21.0577C21.7434 21.0666 21.8025 21.0578 21.8732 21.0446C21.9478 21.0357 22.0343 21.0181 22.0972 21.0181C22.16 21.0136 22.1992 21.0223 22.2503 21.0135C22.3014 21.0047 22.3605 20.9783 22.443 20.9695C22.5295 20.9607 22.6394 20.9692 22.7456 20.9914C22.8517 21.0091 22.9537 21.0399 23.0441 21.0532C23.1384 21.0709 23.221 21.0709 23.2917 21.0399C23.3624 21.0135 23.4214 20.9518 23.4726 20.8856C23.5197 20.8149 23.559 20.7353 23.7672 20.4617C23.9756 20.1879 24.3528 19.7202 24.5649 19.4596C24.7771 19.1992 24.8204 19.1461 24.8636 19.1109C24.9069 19.0799 24.9502 19.0667 25.0288 18.9829C25.1035 18.899 25.2094 18.7488 25.2604 18.6605C25.3116 18.5766 25.3038 18.5546 25.2999 18.5193C25.2959 18.4839 25.292 18.431 25.296 18.3338C25.2999 18.2368 25.3156 18.0953 25.3117 17.9454C25.3077 17.7952 25.2801 17.6364 25.237 17.5127C25.1937 17.3892 25.1308 17.3007 25.0365 17.2126C24.9461 17.1243 24.8165 17.0403 24.7182 16.9653C24.6201 16.8902 24.5494 16.824 24.4472 16.7092C24.345 16.5988 24.2112 16.4355 24.0619 16.2632C23.9126 16.0955 23.7476 15.9145 23.618 15.7689C23.4923 15.6276 23.4058 15.5217 23.3311 15.4115C23.2563 15.2967 23.1935 15.173 23.1306 15.0494C23.2721 14.8595 23.4097 14.6739 23.5354 14.4929C23.6571 14.3163 23.7672 14.1487 23.8497 13.9721C23.9362 13.7955 23.9951 13.6145 24.003 13.3673C24.0148 13.1245 23.9794 12.8154 23.9559 12.5681C23.9323 12.3209 23.9244 12.14 23.9362 11.9722C23.9441 11.8045 23.9715 11.6544 24.0737 11.4161C24.1759 11.1733 24.3489 10.842 24.5728 10.4182C24.7968 9.99882 25.0758 9.49111 25.2722 9.17324C25.4727 8.85973 25.5945 8.73187 25.74 8.6392C25.8854 8.5509 26.0505 8.49343 26.2193 8.43611C26.2823 8.5023 26.3492 8.57301 26.3924 8.62596C26.4317 8.67892 26.4553 8.71411 26.4827 8.74074C26.4789 8.77158 26.475 8.80693 26.4827 8.84213C26.4907 8.89072 26.5102 8.94368 26.5417 8.97015C26.5693 9.00114 26.6085 9.0055 26.6438 8.99663C26.6753 8.99227 26.7107 8.97467 26.7421 8.94368H26.746C26.7814 8.97015 26.8206 8.99663 26.86 9.00986C26.9307 9.04086 26.9897 9.0365 27.0448 9.01438C27.1037 8.99678 27.1586 8.95707 27.1939 8.93931C27.2254 8.92171 27.2372 8.93044 27.2411 8.94368C27.245 8.95255 27.2412 8.97451 27.2451 8.99663C27.253 9.01874 27.2727 9.04522 27.2804 9.06733C27.2883 9.08945 27.2882 9.10705 27.2843 9.12029C27.2843 9.13352 27.2843 9.1424 27.3158 9.16888C27.3511 9.19535 27.4181 9.23943 27.4888 9.28366C27.5203 9.27042 27.5556 9.25267 27.591 9.23507C27.6381 9.27042 27.6853 9.31013 27.7718 9.35873C27.8622 9.41168 27.9918 9.47787 28.1726 9.56181C28.1922 9.57053 28.2158 9.58393 28.2394 9.5928C28.2316 9.61928 28.2195 9.6456 28.2157 9.67644C28.2078 9.72503 28.2079 9.78686 28.2354 9.83981C28.2589 9.89276 28.3061 9.93263 28.3611 9.96347C28.42 9.99446 28.4831 10.0121 28.5656 10.0164C28.6166 10.0208 28.6755 10.0164 28.7346 10.0164C28.7188 10.065 28.707 10.1181 28.711 10.1711C28.7149 10.2329 28.7385 10.2859 28.7346 10.3388C28.7346 10.3874 28.711 10.4358 28.6874 10.4801C28.6639 10.5241 28.6363 10.5684 28.6245 10.5994C28.6127 10.6346 28.6127 10.6522 28.6206 10.6522C28.6324 10.6522 28.6519 10.6257 28.6678 10.6079C28.6834 10.5903 28.6992 10.5814 28.711 10.5814C28.7267 10.586 28.7385 10.6037 28.7462 10.6126C28.7581 10.617 28.7659 10.6124 28.7778 10.6079C28.7896 10.6036 28.8092 10.5994 28.8329 10.6126C28.8564 10.6258 28.8876 10.6567 28.9191 10.6877C29.0134 10.5729 29.1117 10.4536 29.1746 10.3874C29.2374 10.3212 29.2689 10.3123 29.2965 10.2991C29.316 10.3123 29.3318 10.3254 29.3633 10.3564C29.3907 10.3829 29.4341 10.427 29.4695 10.4578C29.5087 10.4931 29.5441 10.5154 29.599 10.5243C29.6501 10.533 29.7169 10.5243 29.7759 10.5111C29.8348 10.4933 29.8858 10.4712 29.9252 10.4668C29.9644 10.4579 29.9959 10.4668 30.0391 10.4668C30.0862 10.4668 30.1452 10.4534 30.1924 10.4182C30.2356 10.3829 30.267 10.3254 30.2945 10.2681C30.3259 10.2681 30.3613 10.2637 30.3967 10.2594C30.436 10.255 30.4754 10.2505 30.5382 10.2108C30.6011 10.1711 30.6876 10.0958 30.7387 10.0429C30.7858 9.98994 30.7976 9.95459 30.7976 9.91488C30.7976 9.87516 30.7857 9.82657 30.7779 9.77798C30.7661 9.72939 30.7583 9.68547 30.7701 9.64576C30.7819 9.60589 30.8171 9.57941 30.8565 9.51322C30.8957 9.45139 30.9469 9.35436 30.9745 9.2793C31.0059 9.19987 31.0137 9.14224 30.9666 9.04958C30.9154 8.95691 30.8095 8.83325 30.7466 8.74495C30.6797 8.66116 30.6562 8.61273 30.5894 8.52442C30.5266 8.43175 30.4205 8.29922 30.2751 8.11373C30.1258 7.9284 29.941 7.69432 29.7994 7.47363C29.658 7.25279 29.5597 7.04535 29.4969 6.90845C29.4379 6.76719 29.4104 6.69664 29.383 6.62609C29.3554 6.5599 29.3318 6.48919 29.3082 6.4406C29.2807 6.38765 29.2572 6.35681 29.2375 6.31258C29.2178 6.27287 29.198 6.22864 29.1667 6.14033C29.1352 6.05203 29.092 5.92401 29.0527 5.84022C29.0095 5.75191 28.9703 5.70768 28.927 5.66361C28.927 5.65037 28.9271 5.63698 28.9467 5.61502C28.9702 5.5929 29.0135 5.5577 29.0568 5.52235C29.0253 5.49151 28.9938 5.46052 28.9388 5.43405C28.8799 5.40757 28.8013 5.38109 28.7501 5.35898C28.6991 5.33686 28.6794 5.3149 28.6518 5.29279C28.6244 5.26631 28.593 5.23532 28.5577 5.21321C28.5262 5.19109 28.4986 5.17349 28.4043 5.08519C28.314 4.99688 28.1567 4.83351 27.9995 4.67465C27.9957 4.63494 27.9918 4.59086 27.9878 4.55115C27.917 4.48932 27.8463 4.43185 27.7874 4.40974C27.7245 4.38326 27.6696 4.3965 27.6146 4.40974C27.5989 4.39214 27.5831 4.3789 27.5359 4.33919C27.4927 4.30399 27.4181 4.23749 27.3237 4.15806C27.2294 4.08299 27.1194 3.99484 27.0448 3.91541C26.97 3.84035 26.9384 3.78288 26.8834 3.72556C26.8285 3.67261 26.7578 3.61966 26.6989 3.56219C26.6359 3.50036 26.5888 3.43417 26.5455 3.39882C26.5023 3.36347 26.4631 3.36362 26.4316 3.4077C26.3962 3.45193 26.3688 3.53556 26.3609 3.6195C26.3491 3.69893 26.3608 3.77836 26.3687 3.85794C26.3059 3.82695 26.2431 3.79627 26.1409 3.73444C26.0387 3.67713 25.8972 3.58431 25.7714 3.46065C25.6418 3.34151 25.5277 3.19573 25.4137 3.04575C25.4649 3.19137 25.5159 3.34151 25.5631 3.50036C25.6063 3.66374 25.6497 3.84035 25.7243 3.99936C25.799 4.15385 25.9051 4.29947 26.0151 4.44073C25.8854 4.5158 25.7595 4.58635 25.6299 4.66141C25.5669 4.57311 25.5082 4.4848 25.3117 4.23313C25.1151 3.97709 24.7891 3.56235 24.459 3.14294C24.628 3.4077 24.7968 3.67246 24.9108 3.86682C25.0247 4.06103 25.0798 4.18921 25.1348 4.31271C24.9618 4.10962 24.7891 3.90218 24.6477 3.76092C24.5022 3.6153 24.3881 3.53572 24.2742 3.45177C24.3016 3.50472 24.3292 3.55331 24.3568 3.61514C24.3843 3.67246 24.4117 3.7388 24.4393 3.80951C24.2545 3.60206 24.0658 3.39882 23.9047 3.25305C23.7397 3.10743 23.5982 3.02364 23.4568 2.93533C23.6415 3.09419 23.8222 3.24884 23.9794 3.4077C24.1328 3.56671 24.2663 3.72556 24.396 3.88458C24.1681 3.69909 23.9402 3.50924 23.7202 3.41206C23.5 3.31051 23.2918 3.30179 23.0835 3.29307C23.2604 3.32827 23.4332 3.36347 23.5787 3.41642C23.7239 3.46937 23.8419 3.54444 23.9559 3.64162C24.066 3.73429 24.1681 3.85343 24.2506 3.96821C24.3331 4.08299 24.392 4.20229 24.4312 4.31707C24.4706 4.43185 24.4903 4.54663 24.5099 4.66141C24.4312 4.61282 24.3529 4.56439 24.2782 4.52903C24.1996 4.48932 24.1289 4.45833 24.0542 4.43185C24.0856 4.45397 24.1131 4.47608 24.1484 4.5158C24.1838 4.55551 24.2232 4.61282 24.2664 4.67029C24.1996 4.62606 24.1326 4.57747 24.0148 4.53339C23.897 4.48916 23.728 4.44524 23.5551 4.40101C23.7005 4.4672 23.8419 4.53339 23.9362 4.58635C24.0345 4.64366 24.0856 4.69677 24.1328 4.74536C24.0582 4.71888 23.9835 4.69225 23.8104 4.59958C23.6416 4.50676 23.3743 4.33919 23.107 4.17581C23.2486 4.29075 23.3861 4.40538 23.5197 4.51128C23.6494 4.61718 23.7711 4.71888 23.8929 4.81606C23.7475 4.76311 23.6061 4.71452 23.4135 4.65269C23.221 4.5865 22.9811 4.5158 22.71 4.44073C22.4349 4.36566 22.1324 4.29495 21.8338 4.21989C22.1127 4.33467 22.3918 4.44509 22.6197 4.54663C22.8436 4.64818 23.0166 4.73664 23.1895 4.8293C23.0559 4.77635 22.9224 4.72309 22.7848 4.68789C22.6472 4.64802 22.5058 4.63073 22.3603 4.61298C22.4822 4.64833 22.6002 4.68353 22.7692 4.75424C22.942 4.8293 23.1659 4.93957 23.39 5.04983C23.3388 5.03223 23.2918 5.01464 23.17 4.97056C23.0482 4.92633 22.8517 4.85126 22.6827 4.79831C22.5137 4.7452 22.3721 4.71873 22.2267 4.68789C22.3603 4.7628 22.498 4.83366 22.5884 4.89113C22.6827 4.94844 22.7337 4.99252 22.7886 5.03239C22.5765 4.91761 22.3681 4.80267 22.1834 4.73212C21.9988 4.66141 21.8416 4.63509 21.6805 4.61298C21.8769 4.70128 22.0696 4.79395 22.2464 4.90873C22.4272 5.019 22.5883 5.15153 22.7532 5.28391C22.6236 5.2266 22.4941 5.16461 22.3211 5.11166C22.1482 5.05435 21.936 5.00576 21.9439 5.01448C21.9517 5.02336 22.1796 5.0897 22.3407 5.16025C22.5017 5.23096 22.5921 5.30151 22.6865 5.37658C22.5844 5.32799 22.4822 5.28391 22.3368 5.24856C22.1954 5.21321 22.0107 5.19109 21.8299 5.16461C21.885 5.17785 21.94 5.19109 22.054 5.22644C22.1679 5.26616 22.3368 5.33235 22.4468 5.38982C22.5529 5.44713 22.6002 5.49588 22.6473 5.54883C22.553 5.51347 22.4548 5.47828 22.38 5.45616C22.3014 5.43405 22.2425 5.42517 22.1992 5.41629C22.1561 5.40741 22.1245 5.40305 22.1048 5.38982C22.0892 5.37658 22.0775 5.35882 22.0422 5.34122C22.0067 5.31911 21.9399 5.29715 21.8888 5.28391C21.8416 5.26631 21.8102 5.25744 21.7828 5.2442C21.7553 5.23096 21.7357 5.21336 21.716 5.20448C21.7003 5.20012 21.6844 5.20012 21.6687 5.1914C21.6569 5.18252 21.6453 5.16913 21.6374 5.13378C21.6335 5.10294 21.6333 5.05435 21.6333 5.01012C21.6295 4.9704 21.6295 4.93521 21.6216 4.90873C21.6137 4.8821 21.598 4.85998 21.5862 4.83787C21.5783 4.81139 21.5783 4.78507 21.5783 4.741C21.5744 4.69677 21.5705 4.64366 21.5705 4.59958C21.5705 4.55987 21.5744 4.53791 21.5783 4.50256C21.5822 4.4672 21.5901 4.42749 21.5862 4.38778C21.5862 4.34806 21.5784 4.30835 21.5705 4.27736C21.5588 4.24216 21.543 4.20665 21.5351 4.1713C21.5272 4.13594 21.5273 4.09638 21.5273 4.06119C21.5313 4.02583 21.5389 3.995 21.5351 3.97288C21.5351 3.95077 21.5194 3.94173 21.5076 3.93286C21.5273 3.84907 21.5431 3.76528 21.5588 3.71233C21.5746 3.65937 21.5862 3.63726 21.598 3.61514L21.6098 3.62838C21.6216 3.64162 21.6451 3.66825 21.6805 3.69909C21.7158 3.72993 21.7631 3.76092 21.8181 3.77416C21.8732 3.78739 21.936 3.78288 21.9792 3.76964C22.0185 3.75188 22.0383 3.72993 22.0619 3.70345C22.0854 3.68133 22.1129 3.65937 22.1405 3.6505C22.1679 3.64162 22.1913 3.64162 22.2149 3.62838C22.2385 3.61514 22.2582 3.58882 22.27 3.55783C22.2858 3.52248 22.2937 3.48276 22.2975 3.46065C22.2975 3.43417 22.2974 3.4253 22.3053 3.41642C22.3132 3.40754 22.329 3.38994 22.3526 3.38994C22.3761 3.38558 22.4075 3.3943 22.4272 3.38994C22.4507 3.38558 22.4627 3.36347 22.4665 3.34135C22.4744 3.32375 22.4744 3.30615 22.4783 3.29728C22.4783 3.28855 22.4783 3.28404 22.4901 3.28404C22.498 3.28404 22.5135 3.28404 22.5293 3.2884C22.5489 3.29292 22.5727 3.29743 22.6002 3.29307C22.6237 3.29307 22.6552 3.28404 22.6788 3.26192C22.6985 3.24432 22.7061 3.21349 22.71 3.14294C22.7179 3.07659 22.7141 2.96633 22.7141 2.85591C22.7259 2.83379 22.7416 2.81168 22.781 2.78084C22.8202 2.75 22.883 2.71449 22.934 2.6483C22.9852 2.58647 23.0284 2.49381 23.0676 2.4055C23.1266 2.41438 23.1817 2.4189 23.2289 2.41438C23.276 2.40566 23.3154 2.3879 23.3311 2.36579C23.3507 2.34819 23.3467 2.33059 23.3546 2.30396C23.3664 2.27748 23.3821 2.24213 23.39 2.1979C23.3939 2.15819 23.39 2.10523 23.3861 2.0568C23.4058 2.05228 23.4213 2.05228 23.4804 2.03453C23.5393 2.01693 23.6376 1.98173 23.7122 1.95089C23.7869 1.91554 23.8419 1.88455 23.8655 1.85807C23.8931 1.8316 23.8891 1.814 23.8497 1.80512C23.8104 1.79624 23.7357 1.80496 23.661 1.79624C23.5903 1.79173 23.5157 1.77428 23.445 1.76104C23.4528 1.6595 23.4607 1.5578 23.4489 1.44302C23.441 1.32824 23.4174 1.19586 23.3703 1.06348C23.3232 0.926583 23.2524 0.78081 23.1542 0.64843C23.0599 0.52041 22.938 0.396907 22.8083 0.291003C22.6786 0.184944 22.5371 0.101155 22.3957 0.0525636C22.2896 0.0128496 22.1836 -0.00210161 22.0742 0.000234512ZM0.920804 16.394C0.816136 16.5431 0.776625 16.6421 0.738778 16.7357C0.7995 16.6181 0.86036 16.504 0.920804 16.394ZM20.3213 3.98955C20.3314 3.99204 20.3364 4.00683 20.3482 4.05651C20.364 4.12722 20.3876 4.2596 20.3994 4.38326C20.4113 4.51128 20.4152 4.62606 20.431 4.72324C20.4428 4.82479 20.4662 4.90873 20.4936 4.99688C20.5212 5.0897 20.5566 5.18237 20.5801 5.25744C20.5998 5.33702 20.6116 5.39418 20.6155 5.43841C20.6234 5.48248 20.6273 5.51784 20.6588 5.58854C20.6863 5.65909 20.7453 5.76515 20.8003 5.87121C20.7256 5.8491 20.6509 5.8315 20.6037 5.80938C20.5566 5.78727 20.529 5.76515 20.4936 5.74755C20.4622 5.72544 20.4152 5.70768 20.3838 5.69008C20.3524 5.67685 20.3326 5.65925 20.3129 5.63713C20.2933 5.61502 20.2697 5.58839 20.2462 5.56643C20.2186 5.54431 20.1911 5.52671 20.1558 5.51347C20.1204 5.50024 20.0851 5.487 20.0615 5.47376C20.038 5.46052 20.0339 5.44728 20.0339 5.43841C20.0339 5.42517 20.038 5.41645 20.038 5.38109C20.038 5.34574 20.0341 5.28843 20.0262 5.25744C20.0223 5.22224 20.0144 5.21336 20.0144 5.1914C20.0105 5.16929 20.0104 5.12942 20.0183 5.1073C20.0262 5.08082 20.0457 5.06323 20.0536 5.04547C20.0615 5.02787 20.0615 5.00591 20.0615 4.97944C20.0576 4.95296 20.0536 4.92181 20.0497 4.8997C20.0418 4.87774 20.0301 4.86886 20.0301 4.81155C20.0262 4.75408 20.0339 4.64833 20.0301 4.53791C20.0262 4.42765 20.0104 4.30819 19.9947 4.19341C20.0459 4.16693 20.0967 4.14061 20.1361 4.11414C20.1753 4.08315 20.199 4.05215 20.2305 4.03004C20.258 4.00808 20.2894 3.99484 20.3091 3.99048C20.314 3.98923 20.3179 3.98861 20.3213 3.98955ZM26.5378 8.7761L26.5614 8.78934C26.5889 8.80693 26.6125 8.83341 26.6635 8.87748C26.6714 8.88636 26.6792 8.89088 26.6871 8.89976C26.6714 8.90848 26.6556 8.9172 26.6438 8.92156C26.6242 8.92608 26.6124 8.92608 26.6006 8.92156C26.5849 8.91268 26.5731 8.8996 26.5614 8.87748C26.5496 8.85989 26.5418 8.82905 26.5378 8.80257V8.7761ZM28.2904 9.61928C28.4476 9.68983 28.6285 9.76926 28.8093 9.84869C28.8014 9.8708 28.7895 9.88856 28.7816 9.91052C28.7502 9.91503 28.7188 9.91939 28.6833 9.92375C28.5969 9.92827 28.4988 9.91939 28.4319 9.89728C28.3612 9.87968 28.318 9.84869 28.2983 9.81333C28.2747 9.77362 28.2747 9.73406 28.2786 9.69435C28.2786 9.66787 28.2865 9.64124 28.2904 9.61928ZM10.5906 14.6387C10.6103 14.6387 10.634 14.6341 10.6615 14.6563C10.6891 14.6784 10.7204 14.727 10.7519 14.8196C10.7833 14.9123 10.8185 15.0537 10.8343 15.2038C10.85 15.3538 10.8461 15.5174 10.8226 15.6894C10.795 15.8617 10.7441 16.0425 10.6615 16.3029C10.579 16.5635 10.4649 16.8991 10.343 17.1861C10.2252 17.473 10.1035 17.7113 9.98161 17.9496C9.94626 17.9363 9.91077 17.9232 9.86364 17.8924C9.8165 17.8614 9.7537 17.8128 9.65541 17.7555C9.55324 17.698 9.41571 17.6364 9.28609 17.5613C9.15633 17.4862 9.03461 17.4023 8.9402 17.3183C8.84981 17.2346 8.78299 17.1506 8.75152 17.0668C8.71617 16.9829 8.71242 16.8991 8.72421 16.8197C8.73599 16.7402 8.76732 16.665 8.80656 16.5856C8.84593 16.5105 8.90097 16.4267 8.95198 16.3604C9.00702 16.2898 9.06192 16.2324 9.12486 16.1839C9.18766 16.1353 9.25864 16.0956 9.32934 16.0559C9.39616 16.0162 9.4591 15.9808 9.58485 15.8528C9.70657 15.7292 9.89123 15.5127 10.0681 15.2964C10.245 15.08 10.4178 14.8593 10.5906 14.6387ZM13.3651 14.7358C13.5144 14.8153 13.6639 14.8947 13.7738 14.9433C13.8839 14.9962 13.9546 15.0138 14.0567 15.0581C14.1589 15.0978 14.2885 15.1641 14.3712 15.2127C14.4575 15.2613 14.4969 15.2965 14.5363 15.3275C14.5794 15.354 14.6188 15.3759 14.666 15.3935C14.7132 15.4068 14.7681 15.4202 14.8191 15.4379C14.8702 15.4555 14.9213 15.4775 14.996 15.504C15.0707 15.5304 15.1727 15.5658 15.3221 15.5966C15.4754 15.632 15.6799 15.6673 15.8213 15.6938C15.9628 15.7159 16.0373 15.729 16.108 15.7379C16.1788 15.7422 16.2418 15.7426 16.289 15.7513C16.3362 15.7645 16.3675 15.7865 16.3911 15.7997C16.4186 15.8084 16.4461 15.8086 16.4579 15.8086H16.4697C16.4932 15.8748 16.5168 15.9411 16.5522 15.9941C16.5875 16.047 16.6387 16.0866 16.7055 16.1131C16.7723 16.1397 16.8587 16.1486 16.945 16.1575C16.9529 16.1972 16.9608 16.2324 16.9766 16.2764C16.9962 16.3162 17.0277 16.3647 17.0472 16.4398C17.0708 16.5105 17.0866 16.6164 17.114 16.7401C17.1416 16.8592 17.177 17.0006 17.2123 17.1596C17.2438 17.3185 17.2714 17.495 17.287 17.6848C17.3067 17.8747 17.3146 18.0777 17.3303 18.3249C17.3421 18.5677 17.3616 18.8504 17.3813 19.1109C17.401 19.3757 17.4167 19.6096 17.4481 19.8172C17.4756 20.0247 17.515 20.1969 17.5503 20.3293C17.5895 20.4618 17.625 20.5501 17.6604 20.6428C17.6407 20.6914 17.6212 20.7443 17.6015 20.7929C17.5032 20.7973 17.4089 20.8062 17.232 20.7797C17.0553 20.7532 16.7998 20.6912 16.5836 20.6383C16.3675 20.5852 16.1869 20.5411 16.0768 20.5146C15.9667 20.4881 15.9233 20.4793 15.8841 20.4617C15.8487 20.4439 15.8173 20.4131 15.8016 20.3822C15.7859 20.3514 15.7819 20.3159 15.778 20.2851C15.6051 20.2189 15.4362 20.1482 15.3221 20.1085C15.2081 20.0687 15.1532 20.0599 15.0943 20.0466C15.051 20.0069 15.0079 19.9628 14.9685 19.9451C14.9332 19.9231 14.9017 19.9231 14.8702 19.9276C14.8388 19.9276 14.8073 19.932 14.7837 19.9498C14.7641 19.963 14.7563 19.9893 14.7484 20.0201C14.7092 19.9804 14.6699 19.9452 14.6228 19.9188C14.5755 19.8966 14.5205 19.8878 14.4614 19.8526C14.4025 19.8172 14.3358 19.7552 14.2966 19.6714C14.2573 19.5831 14.2415 19.4774 14.2336 19.3846C14.2219 19.2963 14.2138 19.2212 14.1943 19.1637C14.1746 19.1019 14.1433 19.0533 14.1118 19.0312C14.0764 19.0092 14.045 19.0137 13.9978 19.0094C13.9546 19.0049 13.9034 18.9961 13.8563 18.9829C13.813 18.9697 13.7777 18.9561 13.7541 18.9429C13.7305 18.9342 13.7189 18.9211 13.7032 18.9078C13.6718 18.93 13.6402 18.9519 13.6126 18.9873C13.5851 19.0225 13.5577 19.0667 13.5302 19.0977C13.4987 19.1242 13.4673 19.1374 13.4437 19.1595C13.4201 19.1815 13.4043 19.208 13.3887 19.2256C13.369 19.2433 13.3535 19.2477 13.3456 19.2344C13.3377 19.2168 13.3378 19.186 13.3338 19.1595C13.3299 19.1374 13.3141 19.1285 13.3023 19.124C13.2905 19.1196 13.2787 19.1284 13.204 19.1902C13.1294 19.2477 12.9879 19.3624 12.8502 19.4772C12.5949 19.2698 12.3435 19.0623 12.1941 18.9211C12.0448 18.7798 12.0015 18.6957 11.9741 18.5898C11.9503 18.4794 11.9426 18.3383 11.9623 18.1439C11.9818 17.9454 12.0251 17.6937 12.1076 17.4376C12.1902 17.1861 12.312 16.9344 12.4181 16.7578C12.5243 16.5812 12.6145 16.4795 12.6893 16.378C12.7639 16.2721 12.8189 16.1618 12.9015 15.9587C12.984 15.76 13.0941 15.4688 13.1766 15.2481C13.2552 15.0318 13.3101 14.8816 13.3651 14.7358Z" fill="#577184"/>
</g>
<defs>
<clipPath id="clip0_4996_9606">
<rect width="31" height="24" fill="white"/>
</clipPath>
</defs>
</svg>
