<svg width="20" height="20" viewBox="0 0 20 20" fill="none" xmlns="http://www.w3.org/2000/svg">
<rect width="20" height="20" rx="10" fill="#8247E5"/>
<path d="M13.0862 7.86202C12.8668 7.73145 12.5849 7.73145 12.3342 7.86202L10.5796 8.93917L9.38903 9.62463L7.6658 10.7018C7.44648 10.8323 7.16449 10.8323 6.91384 10.7018L5.56658 9.85312C5.34726 9.72255 5.1906 9.46142 5.1906 9.16766V7.53561C5.1906 7.27448 5.31593 7.01335 5.56658 6.85015L6.91384 6.03412C7.13316 5.90356 7.41514 5.90356 7.6658 6.03412L9.01305 6.88279C9.23238 7.01335 9.38903 7.27448 9.38903 7.56825V8.6454L10.5796 7.9273V6.81751C10.5796 6.55638 10.4543 6.29525 10.2037 6.13205L7.69713 4.59792C7.47781 4.46736 7.19582 4.46736 6.94517 4.59792L4.37598 6.16469C4.12533 6.29525 4 6.55638 4 6.81751V9.88576C4 10.1469 4.12533 10.408 4.37598 10.5712L6.91384 12.1053C7.13316 12.2359 7.41514 12.2359 7.6658 12.1053L9.38903 11.0608L10.5796 10.3427L12.3029 9.29822C12.5222 9.16766 12.8042 9.16766 13.0548 9.29822L14.4021 10.1142C14.6214 10.2448 14.7781 10.5059 14.7781 10.7997V12.4318C14.7781 12.6929 14.6527 12.954 14.4021 13.1172L13.0862 13.9332C12.8668 14.0638 12.5849 14.0638 12.3342 13.9332L10.9869 13.1172C10.7676 12.9866 10.611 12.7255 10.611 12.4318V11.3872L9.42037 12.1053V13.1825C9.42037 13.4436 9.54569 13.7047 9.79634 13.868L12.3342 15.4021C12.5535 15.5326 12.8355 15.5326 13.0862 15.4021L15.624 13.868C15.8433 13.7374 16 13.4763 16 13.1825V10.0816C16 9.82047 15.8747 9.55935 15.624 9.39614L13.0862 7.86202Z" fill="white"/>
</svg>
