<svg width="24" height="24" viewBox="0 0 24 24" fill="none" xmlns="http://www.w3.org/2000/svg">
<g clipPath="url(#clip0_4996_9600)">
<path fill-rule="evenodd" clip-rule="evenodd" d="M24 12C24 15.1826 22.7357 18.2348 20.4853 20.4853C18.2348 22.7357 15.1826 24 12 24C8.8174 24 5.76515 22.7357 3.51472 20.4853C1.26428 18.2348 0 15.1826 0 12C0 8.8174 1.26428 5.76515 3.51472 3.51472C5.76515 1.26428 8.8174 0 12 0C15.1826 0 18.2348 1.26428 20.4853 3.51472C22.7357 5.76515 24 8.8174 24 12Z" fill="#577184"/>
<path fill-rule="evenodd" clip-rule="evenodd" d="M14.0395 8.8469C14.0395 10.3872 13.4276 11.8645 12.3384 12.9537C11.2492 14.0428 9.77199 14.6547 8.23166 14.6547C6.69133 14.6547 5.21408 14.0428 4.1249 12.9537C3.03572 11.8645 2.42383 10.3872 2.42383 8.8469C2.42383 7.30656 3.03572 5.82932 4.1249 4.74014C5.21408 3.65096 6.69133 3.03906 8.23166 3.03906C9.77199 3.03906 11.2492 3.65096 12.3384 4.74014C13.4276 5.82932 14.0395 7.30656 14.0395 8.8469Z" fill="#0F212E"/>
<path d="M6.98199 8.21266C6.61043 8.07665 6.33509 7.88257 6.15595 7.63044C5.9768 7.37832 5.88724 7.07642 5.88724 6.72477C5.88724 6.19398 6.07799 5.74778 6.4595 5.38615C6.84101 5.02455 7.34858 4.84376 7.98227 4.84375C8.61922 4.84376 9.13175 5.02871 9.5199 5.3986C9.90805 5.7685 10.1021 6.21885 10.1021 6.74959C10.1021 7.08798 10.0134 7.3824 9.8359 7.63287C9.65841 7.88334 9.38886 8.07658 9.02726 8.21259C9.47512 8.35856 9.81598 8.5941 10.0499 8.91921C10.2838 9.24432 10.4007 9.63247 10.4007 10.0837C10.4007 10.7073 10.1801 11.2315 9.73886 11.6561C9.29764 12.0808 8.71708 12.2931 7.99722 12.2931C7.27733 12.2931 6.6968 12.0799 6.25558 11.6536C5.81436 11.2273 5.59375 10.6957 5.59375 10.0588C5.59375 9.58442 5.714 9.18715 5.95452 8.86701C6.19504 8.54687 6.53757 8.32875 6.98211 8.21264L6.98199 8.21266ZM6.80285 6.69488C6.80285 7.0399 6.91398 7.32188 7.13626 7.54083C7.35852 7.75979 7.64715 7.86927 8.00212 7.86926C8.34714 7.86926 8.62994 7.76061 8.85056 7.54331C9.07117 7.32602 9.18147 7.0598 9.18148 6.74463C9.18148 6.41621 9.06786 6.14003 8.84061 5.91609C8.61336 5.69216 8.33054 5.5802 7.99217 5.5802C7.65047 5.5802 7.36683 5.68968 7.14124 5.90862C6.91565 6.12758 6.80285 6.38966 6.80286 6.69487L6.80285 6.69488ZM6.51423 10.0638C6.51422 10.3192 6.57477 10.5664 6.69586 10.8052C6.81695 11.0441 6.99691 11.229 7.23577 11.3601C7.47463 11.4911 7.73173 11.5566 8.00709 11.5566C8.43504 11.5566 8.78835 11.419 9.06701 11.1436C9.34567 10.8683 9.48501 10.5183 9.48502 10.0936C9.48501 9.66238 9.34153 9.30575 9.05458 9.02376C8.76761 8.74178 8.4085 8.60079 7.97724 8.60079C7.55591 8.60079 7.20675 8.74012 6.92974 9.01879C6.65273 9.29746 6.51423 9.64579 6.51424 10.0638L6.51423 10.0638Z" fill="#577184"/>
</g>
<defs>
<clipPath id="clip0_4996_9600">
<rect width="24" height="24" fill="white"/>
</clipPath>
</defs>
</svg>
