<svg width="128" height="22" viewBox="0 0 128 22" fill="none" xmlns="http://www.w3.org/2000/svg">
<g clipPath="url(#clip0_3981_7945)">
<path d="M4.76837 0.757982H12.6853L8.53088 14.6702C8.23928 15.6462 8.85796 16.4511 9.87721 16.4511C10.8968 16.4511 11.9463 15.6462 12.2376 14.6702L16.3921 0.757982L23.4124 0.757812L18.6155 18.5421C18.1921 20.1108 16.5097 21.3948 14.8766 21.3948H2.73038C0.789624 21.3948 -0.386761 19.8694 0.116291 18.0041L4.76837 0.757982Z" fill="white"/>
<path d="M32.2183 8.35742V8.3576H40.3482L38.8714 13.1746H30.7387L28.481 21.3949H20.8379L24.5752 8.35742H32.2183Z" fill="white"/>
<path d="M48.0367 0.548828H58.3761C59.8886 0.548828 62.4559 1.75574 61.9305 3.67507L61.7235 4.43075H52.4971C52.0232 4.43075 51.5301 4.80924 51.402 5.27159L48.5345 15.6135C48.4064 16.0759 48.6893 16.4542 49.1633 16.4542H58.4316L57.7596 18.9083C57.3706 20.3301 55.8369 21.4996 54.3251 21.4996H43.4098C41.4859 21.4996 40.304 20.0158 40.7835 18.2029L44.8091 2.98347C45.1633 1.64427 46.6157 0.548828 48.0367 0.548828Z" fill="white"/>
<path d="M41.1638 5.54614H33.0505L33.0464 5.56003H25.4033L26.8738 0.5C32.1252 0.5 37.3766 0.5 42.6275 0.5L41.1638 5.54614Z" fill="white"/>
</g>
<path d="M75.184 16.16C73.7547 16.16 72.6827 15.776 71.968 15.008C71.264 14.24 70.912 13.0453 70.912 11.424L70.912 5.28L72.72 5.28L72.72 11.44C72.72 12.496 72.912 13.2587 73.296 13.728C73.6907 14.1973 74.3253 14.432 75.2 14.432C76.096 14.432 76.7307 14.1973 77.104 13.728C77.4773 13.2587 77.664 12.496 77.664 11.44L77.664 5.28L79.472 5.28L79.472 11.424C79.472 13.0453 79.1253 14.24 78.432 15.008C77.7387 15.776 76.656 16.16 75.184 16.16ZM83.5515 16L81.7435 16L81.7435 5.28L83.5515 5.28L83.5515 16ZM88.2075 11.776L82.3515 11.776L82.3515 10.176L88.2075 10.176L88.2075 11.776ZM89.1835 6.88L82.3515 6.88L82.3515 5.28L89.1835 5.28L89.1835 6.88ZM94.9498 16.128C93.8511 16.128 92.9178 15.8827 92.1498 15.392C91.3818 14.9013 90.7951 14.24 90.3898 13.408C89.9951 12.576 89.7978 11.648 89.7978 10.624C89.7978 9.58933 89.9951 8.66133 90.3898 7.84C90.7951 7.008 91.3818 6.34667 92.1498 5.856C92.9178 5.36533 93.8511 5.12 94.9498 5.12C95.7498 5.12 96.4591 5.25333 97.0778 5.52C97.6964 5.776 98.2244 6.14933 98.6618 6.64C99.1098 7.13067 99.4564 7.728 99.7018 8.432L98.1337 9.584C98.0164 9.05067 97.8244 8.576 97.5578 8.16C97.3018 7.744 96.9551 7.41867 96.5178 7.184C96.0911 6.94933 95.5738 6.832 94.9658 6.832C94.2298 6.832 93.6218 6.99733 93.1418 7.328C92.6618 7.648 92.3044 8.09067 92.0698 8.656C91.8351 9.22133 91.7178 9.87733 91.7178 10.624C91.7178 11.36 91.8351 12.016 92.0698 12.592C92.3044 13.1573 92.6618 13.6053 93.1418 13.936C93.6218 14.256 94.2298 14.416 94.9658 14.416C95.5738 14.416 96.0911 14.2987 96.5178 14.064C96.9551 13.8293 97.3018 13.504 97.5578 13.088C97.8244 12.672 98.0164 12.1973 98.1337 11.664L99.7018 12.816C99.4564 13.5093 99.1098 14.1067 98.6618 14.608C98.2244 15.0987 97.6964 15.4773 97.0778 15.744C96.4591 16 95.7498 16.128 94.9498 16.128ZM112.458 16L104.794 16L104.794 14.624L108.49 11.104C108.842 10.7627 109.146 10.4427 109.402 10.144C109.668 9.83467 109.876 9.53067 110.026 9.232C110.186 8.93333 110.266 8.61333 110.266 8.272C110.266 8.016 110.212 7.78133 110.106 7.568C109.999 7.35467 109.834 7.184 109.61 7.056C109.396 6.91733 109.119 6.848 108.778 6.848C108.255 6.848 107.802 6.96533 107.418 7.2C107.034 7.424 106.746 7.76533 106.554 8.224C106.362 8.672 106.276 9.24267 106.298 9.936L104.778 8.832C104.756 8.11733 104.922 7.48267 105.274 6.928C105.636 6.36267 106.132 5.92 106.762 5.6C107.391 5.28 108.116 5.12 108.938 5.12C109.663 5.12 110.26 5.25333 110.73 5.52C111.21 5.776 111.567 6.13333 111.802 6.592C112.036 7.05067 112.154 7.57333 112.154 8.16C112.154 8.58667 112.068 9.00267 111.898 9.408C111.738 9.80267 111.519 10.176 111.242 10.528C110.975 10.88 110.687 11.2107 110.378 11.52C110.068 11.8187 109.77 12.0853 109.482 12.32L107.994 13.632L106.746 14.56L108.346 14.4L112.458 14.4L112.458 16ZM121.973 16L114.309 16L114.309 14.624L118.005 11.104C118.357 10.7627 118.661 10.4427 118.917 10.144C119.184 9.83467 119.392 9.53067 119.541 9.232C119.701 8.93333 119.781 8.61333 119.781 8.272C119.781 8.016 119.728 7.78133 119.621 7.568C119.515 7.35467 119.349 7.184 119.125 7.056C118.912 6.91733 118.635 6.848 118.293 6.848C117.771 6.848 117.317 6.96533 116.933 7.2C116.549 7.424 116.261 7.76533 116.069 8.224C115.877 8.672 115.792 9.24267 115.813 9.936L114.293 8.832C114.272 8.11733 114.437 7.48267 114.789 6.928C115.152 6.36267 115.648 5.92 116.277 5.6C116.907 5.28 117.632 5.12 118.453 5.12C119.179 5.12 119.776 5.25333 120.245 5.52C120.725 5.776 121.083 6.13333 121.317 6.592C121.552 7.05067 121.669 7.57333 121.669 8.16C121.669 8.58667 121.584 9.00267 121.413 9.408C121.253 9.80267 121.035 10.176 120.757 10.528C120.491 10.88 120.203 11.2107 119.893 11.52C119.584 11.8187 119.285 12.0853 118.997 12.32L117.509 13.632L116.261 14.56L117.861 14.4L121.973 14.4L121.973 16ZM126.63 16L124.822 16L124.822 7.552L122.87 7.552L122.87 6.24C123.158 6.24 123.43 6.208 123.686 6.144C123.953 6.08 124.198 5.97867 124.422 5.84C124.657 5.69067 124.865 5.504 125.046 5.28L126.63 5.28L126.63 16Z" fill="white"/>
<defs>
<clipPath id="clip0_3981_7945">
<rect width="62" height="21" fill="white" transform="translate(0 0.5)"/>
</clipPath>
</defs>
</svg>
