<svg width="20" height="20" viewBox="0 0 20 20" fill="none" xmlns="http://www.w3.org/2000/svg">
<path d="M10 0C15.5226 0 20 4.4774 20 10C20 15.5226 15.5224 20 10 20C4.4776 20 0 15.5238 0 10C0 4.4762 4.4768 0 10 0Z" fill="#53AE94"/>
<path d="M11.2339 8.66826V7.18066H14.6357V4.91406H5.37246V7.18066H8.77466V8.66706C6.00966 8.79406 3.93066 9.34166 3.93066 9.99766C3.93066 10.6537 6.01066 11.2013 8.77466 11.3291V16.0941H11.2347V11.3287C13.9947 11.2013 16.0695 10.6541 16.0695 9.99866C16.0695 9.34326 13.9947 8.79606 11.2347 8.66866M11.2347 10.9251V10.9239C11.1653 10.9283 10.8087 10.9497 10.0147 10.9497C9.37986 10.9497 8.93326 10.9317 8.77586 10.9235V10.9255C6.33306 10.8173 4.50966 10.3919 4.50966 9.88286C4.50966 9.37386 6.33326 8.94906 8.77586 8.84066V10.5017C8.93586 10.5127 9.39346 10.5397 10.0251 10.5397C10.7837 10.5397 11.1651 10.5081 11.2351 10.5017V8.84066C13.6731 8.94926 15.4923 9.37506 15.4923 9.88226C15.4923 10.3895 13.6723 10.8155 11.2351 10.9241" fill="white"/>
</svg>
