<svg width="20" height="20" viewBox="0 0 20 20" fill="none" xmlns="http://www.w3.org/2000/svg">
<path d="M5.4968 20.0004C10.6506 20.0004 10.6506 19.924 11.5244 19.6657C12.6664 19.3281 8.30014 16.3184 5.4968 16.3184C2.69346 16.3184 0.420898 17.1426 0.420898 18.1594C0.420898 19.1762 2.69357 20.0004 5.4968 20.0004Z" fill="black"/>
<path d="M17.1987 4.34459L17.4358 4.59899L17.2286 4.87801C10.5071 13.928 6.6351 18.0256 4.99225 17.476C3.99159 17.1413 2.98807 16.1346 1.98452 14.6727C1.63178 14.1589 1.30054 13.6178 0.999284 13.0794C0.798672 12.7208 0.628873 12.3938 0.54071 12.2096C0.428246 11.9746 0.380765 11.8299 0.343095 11.6398C0.340796 11.6282 0.340796 11.6282 0.338612 11.617C0.322889 11.5363 0.31745 11.5108 0.305697 11.4667C0.103445 10.7076 0 9.92111 0 9.12144C0 4.08381 4.10092 0 9.15966 0C10.7445 0 12.2718 0.401663 13.6253 1.15566L13.6602 1.17743C14.7684 1.94573 15.9471 3.00144 17.1987 4.34459ZM13.1971 1.87601C11.9726 1.19784 10.5929 0.836829 9.15966 0.836829C4.56503 0.836829 0.840336 4.54597 0.840336 9.12144C0.840336 9.84851 0.934293 10.5628 1.11793 11.252C1.13609 11.3202 1.1443 11.3587 1.16356 11.4576C1.16559 11.4679 1.16559 11.4679 1.16753 11.4778C1.19184 11.6005 1.21749 11.6787 1.29928 11.8495C1.37971 12.0176 1.54133 12.3288 1.73337 12.6721C2.02292 13.1896 2.34111 13.7093 2.67825 14.2004C3.58493 15.5212 4.48414 16.4233 5.25985 16.6828C6.29444 17.0289 10.1893 12.9231 16.3445 4.66069C15.227 3.48609 14.1772 2.55785 13.1971 1.87601Z" fill="black"/>
<path d="M13.1966 1.87708C11.9721 1.1989 10.5924 0.837891 9.15917 0.837891C4.56453 0.837891 0.839844 4.54704 0.839844 9.1225C0.839844 9.84957 0.933801 10.5639 1.11744 11.2531C1.1356 11.3213 1.14381 11.3598 1.16307 11.4586C1.16509 11.469 1.16509 11.469 1.16704 11.4789C1.19135 11.6015 1.217 11.6797 1.29879 11.8506C1.37921 12.0186 1.54084 12.3299 1.73288 12.6731C2.02242 13.1906 2.34061 13.7104 2.67776 14.2015C3.58444 15.5223 4.48364 16.4243 5.25936 16.6838C6.29395 17.0299 10.1888 12.9242 16.344 4.66176C15.2265 3.48715 14.1767 2.55891 13.1966 1.87708Z" fill="#EC1C79"/>
<path d="M10.8403 19.9167C5.78159 19.9167 1.68066 15.8329 1.68066 10.7953C1.68066 5.75763 5.78159 1.67383 10.8403 1.67383C15.8991 1.67383 20 5.75763 20 10.7953C20 15.8329 15.8991 19.9167 10.8403 19.9167ZM10.8403 19.0799C15.435 19.0799 19.1597 15.3707 19.1597 10.7953C19.1597 6.2198 15.435 2.51066 10.8403 2.51066C6.24569 2.51066 2.521 6.2198 2.521 10.7953C2.521 15.3707 6.24569 19.0799 10.8403 19.0799Z" fill="black"/>
<path d="M10.8398 19.079C15.4345 19.079 19.1592 15.3698 19.1592 10.7944C19.1592 6.21891 15.4345 2.50977 10.8398 2.50977C6.2452 2.50977 2.52051 6.21891 2.52051 10.7944C2.52051 15.3698 6.2452 19.079 10.8398 19.079Z" fill="white"/>
<path fill-rule="evenodd" clip-rule="evenodd" d="M4.61778 12.4929L3.5166 9.18906H4.48131L5.05542 11.087L5.69072 9.17969H6.4766L7.1119 11.087L7.68601 9.18906H8.6319L7.53072 12.4929H6.73542L6.0719 10.6043L5.41307 12.4929H4.61778ZM8.99425 12.4694V9.18906H11.6437V9.96229H9.89778V10.459H11.479V11.176H9.89778V11.6962H11.6672V12.4694H8.99425ZM12.9378 12.4694V9.98572H11.9495V9.18906H14.839V9.98572H13.8507V12.4694H12.9378ZM15.239 12.4694V9.18906H16.1519V10.4169H17.3237V9.18906H18.2366V12.4694H17.3237V11.2229H16.1519V12.4694H15.239Z" fill="black"/>
<path d="M0.545394 8.20233C0.312934 8.08659 0.21871 7.8051 0.334941 7.5736C0.451171 7.34211 0.733841 7.24828 0.966301 7.36403L2.31084 8.03349C2.5433 8.14924 2.63752 8.43073 2.52129 8.66222C2.40506 8.89371 2.12239 8.98754 1.88993 8.87179L0.545394 8.20233Z" fill="black"/>
<path d="M0.390695 10.4216C0.154715 10.3131 0.0517024 10.0347 0.16061 9.79971C0.269517 9.56471 0.549104 9.46213 0.785084 9.57058L2.12962 10.1885C2.3656 10.297 2.46861 10.5754 2.35971 10.8104C2.2508 11.0454 1.97121 11.148 1.73523 11.0395L0.390695 10.4216Z" fill="black"/>
</svg>
