<svg width="28" height="21" viewBox="0 0 28 21" fill="none" xmlns="http://www.w3.org/2000/svg">
<path fill-rule="evenodd" clip-rule="evenodd" d="M0 1.5C0 0.67157 0.67157 0 1.5 0H26.5C27.3284 0 28 0.67157 28 1.5C28 2.32843 27.3284 3 26.5 3H1.5C0.67157 3 0 2.32843 0 1.5ZM0 10.5C0 9.67157 0.67157 9 1.5 9H26.5C27.3284 9 28 9.67157 28 10.5C28 11.3284 27.3284 12 26.5 12H1.5C0.67157 12 0 11.3284 0 10.5ZM1.5 18C0.67157 18 0 18.6716 0 19.5C0 20.3284 0.67157 21 1.5 21H26.5C27.3284 21 28 20.3284 28 19.5C28 18.6716 27.3284 18 26.5 18H1.5Z" fill="white"/>
</svg>
